<?xml version="1.0" encoding="UTF-8" standalone="no"?>
<!-- Created with Inkscape (http://www.inkscape.org/) -->

<svg
   version="1.1"
   id="svg2"
   xml:space="preserve"
   width="3466.6667"
   height="2666.6667"
   viewBox="0 0 3466.6667 2666.6667"
   sodipodi:docname="Hand of generous person putting heart in jar.eps"
   xmlns:inkscape="http://www.inkscape.org/namespaces/inkscape"
   xmlns:sodipodi="http://sodipodi.sourceforge.net/DTD/sodipodi-0.dtd"
   xmlns="http://www.w3.org/2000/svg"
   xmlns:svg="http://www.w3.org/2000/svg"><defs
     id="defs6" /><sodipodi:namedview
     id="namedview4"
     pagecolor="#ffffff"
     bordercolor="#666666"
     borderopacity="1.0"
     inkscape:pageshadow="2"
     inkscape:pageopacity="0.0"
     inkscape:pagecheckerboard="0" /><g
     id="g8"
     inkscape:groupmode="layer"
     inkscape:label="ink_ext_XXXXXX"
     transform="matrix(1.3333333,0,0,-1.3333333,0,2666.6667)"><g
       id="g10"
       transform="scale(0.1)"><path
         d="M 26000,20000 V 0 H 0 v 20000 h 26000"
         style="fill:#ffffff;fill-opacity:1;fill-rule:nonzero;stroke:none"
         id="path12" /><path
         d="m 5507.99,2946 c 0,0 -2723.66,7419.9 -763.62,9072.2 1310.1,1104.4 2698.74,-1330.1 4356.18,-42.3 1475.55,1146.7 -581.64,4035.1 1880.45,4790.7 2587.8,794.2 4707.9,-5637.7 6879.3,-4748.4 2634.9,1079.1 5255.8,-1111.5 2990.8,-9086.4 L 5507.99,2946"
         style="fill:#d4e8ff;fill-opacity:1;fill-rule:nonzero;stroke:none"
         id="path14" /><path
         d="m 3388.17,3935.5 c -12.97,44.6 -25.84,89.5 -38.5,134.4 l -107.17,-33.5 c 12.04,-42.8 24.28,-85.5 36.63,-128 32.05,-110.4 64.84,-219.8 97.83,-326.3 l 106.24,36.6 c -32.06,103.5 -63.91,209.5 -95.03,316.8 z M 22494.2,4257 c -10.3,-99.7 -21.3,-200.8 -32.7,-302.1 -6.3,-56 -12.7,-111.9 -19.2,-167.9 l 110.9,-14.4 c 6.5,55.7 12.9,111.6 19.3,167.5 11.5,101.9 22.5,203.7 33,304.1 z m -19379.41,725.4 -108.63,-28 c 35.79,-153.5 73.66,-308.3 112.88,-460.5 l 107.9,30.8 c -38.91,151.2 -76.67,305.2 -112.15,457.7 z m 19542.11,210 -78.1,6.5 c -2.4,-30.9 -4.8,-62 -7.2,-93.1 -9.8,-125.2 -20.4,-252 -31.7,-378.2 l 111.3,-11 c 14.2,158.2 27.4,317.4 39.1,473 z m -19734.46,713.4 -109.77,-22.4 c 28.32,-154.1 59.03,-310.7 91.3,-465.7 l 109.25,25.2 c -32.06,154 -62.67,309.8 -90.78,462.9 z M 22635.4,6143 c -6.8,-155.8 -15.2,-314.6 -24.6,-472.2 l 111.6,-7.5 c 9.5,158.2 17.8,317.7 24.8,474.3 z m -19860.6,694.9 -110.7,-16.3 c 20.54,-155.1 43.57,-313.2 68.37,-470.2 l 110.29,19.4 c -24.7,155.9 -47.52,313 -67.96,467.1 z m 19886.6,250.5 c -1.6,-155.5 -4.6,-314.5 -8.9,-472.8 l 111.7,-3.4 c 4.5,158.9 7.5,318.7 9,475 z m -19985.16,688.4 -111.43,-9.5 c 11.93,-155.8 26.46,-315.2 43.16,-473.7 l 111.12,13 c -16.5,157.3 -30.92,315.5 -42.85,470.2 z m 20088.86,260.5 -111.7,-3.5 c 4.2,-155.2 7.1,-314.2 8.4,-472.6 l 111.8,1 c -1.2,159.3 -4.1,319 -8.5,475.1 z m -20132.44,682.3 -111.73,-1.7 c 2.28,-156.3 7.15,-316.3 14.52,-475.7 l 111.74,5.8 c -7.37,158 -12.24,316.7 -14.53,471.6 z m 20086.24,266.8 -111.6,-8.7 c 10.9,-154.8 20.4,-313.5 28,-471.6 l 111.8,6 c -7.8,159 -17.2,318.6 -28.2,474.3 z M 2539.81,9669.6 c -8.72,-155.8 -14.74,-315.9 -17.85,-475.8 l 111.84,-2.4 c 3.01,158.4 9.03,316.9 17.64,471.3 z m 20089.39,262.9 -111,-14.7 c 18.5,-153.4 35.4,-311.3 50.3,-469.5 l 111.3,11.7 c -15,159.1 -32.1,318.1 -50.6,472.5 z m -19998.51,684.9 c -21.37,-154.6 -39.84,-313.8 -55.09,-473 l 111.32,-11.7 c 15.05,157.5 33.31,314.9 54.47,467.8 z m 19858.91,254.8 -109.9,-21.7 c 27.1,-151.6 52.7,-308.1 75.9,-465.3 l 110.5,18.2 c -23.4,158.3 -49.1,316 -76.5,468.8 z M 9139.31,10548.5 c -85.18,34.5 -163.93,92.2 -262.49,173.4 l -70.65,-91.2 c 111.42,-92 200.75,-156.4 299.63,-194.9 39.11,-15.3 79.78,-26.6 123.77,-33.9 l 11.93,117 c -36,6.4 -69.51,16.4 -102.19,29.6 z m 570.93,609 -57.69,13.3 c -0.31,-1.7 -0.72,-3.5 -1.14,-5.1 -9.96,-47.9 -20.44,-93.2 -31.43,-135.9 -8.2,-32.1 -16.71,-62.7 -25.52,-91.8 -23.66,-78.7 -49.18,-146.4 -76.47,-202.5 l 99.6,-53.5 c 14.84,30.6 29.05,63.6 42.64,99.4 28.74,75 54.78,161.8 78.75,261.6 7.78,32.8 15.46,67 22.82,102.6 z m -1269.58,35.7 c -12.87,16.2 -26.04,32.8 -39.32,49.7 -40.36,51.6 -82.48,106.6 -126.58,165.7 l -87.87,-72.7 c 30.91,-41.4 60.9,-80.9 90.05,-118.6 0,-0.2 0.1,-0.3 0.1,-0.4 14.22,-18.3 28.12,-36.2 41.92,-53.7 55.61,-70.9 108.21,-135.4 158.94,-194.9 l 83.21,78.8 c -38.7,45.4 -78.75,93.9 -120.45,146.1 z m -5637.02,359.9 c -35.69,-151.9 -68.37,-308.7 -97.42,-465.7 l 109.77,-22.5 c 28.63,155.2 61,310 96.28,459.9 z m 19487.66,247.8 -108.1,-30.1 c 37.2,-148.6 73,-302.7 106.1,-458.2 l 109.2,25.8 c -33.4,156.9 -69.5,312.6 -107.2,462.5 z m -12518.19,304 c -14.42,-176.1 -29.88,-329.9 -47,-470.4 l 18.47,-2.6 92.44,-12.5 c 5.19,42.5 10.17,86.1 15.04,131.2 11.52,105.8 22.21,219.5 32.48,344.1 z m -2036.08,63.1 -90.47,-69.1 c 81.24,-117.9 175.54,-254.5 266.43,-383.7 l 89.85,70 c -90.58,128.8 -184.68,265.2 -265.81,382.8 z m 8541.57,-278.8 c -129.9,-64.8 -250.2,-64.7 -372.5,16.6 l -59.7,-99.5 c 81.4,-54.1 166.9,-81.5 254,-81.5 73.3,0 149.5,19.5 226.4,58.1 z m -13209.46,575.9 c -51.67,-147.1 -100.43,-299.3 -144.84,-452.2 l 106.86,-34.4 c 43.89,150.7 91.93,300.7 142.87,445.7 z m 13818.96,70 c -92.6,-134.7 -175.9,-245.2 -253.8,-336.7 -8,-9.5 -16,-18.8 -24,-27.9 l 82.2,-79.8 c 13.7,15.6 27.6,31.9 41.6,48.7 75.7,90.6 156.2,198.1 244.6,326.7 z m -1477.9,110.1 -101,-50.4 c 75.1,-167.2 146.9,-305.7 219.2,-423.2 l 93.9,64.1 c -69.7,113.1 -139,247.1 -212.1,409.5 z m 6611.6,65.2 -105,-40.3 c 49.7,-143.6 97.7,-293.8 142.8,-446.3 l 106.8,35 c -45.6,154.3 -94.2,306.2 -144.6,451.6 z m -14819.5,223.7 -89.12,-71.1 c 80.72,-112.3 166,-233.1 268.3,-380.3 l 90.26,69.5 c -102.71,147.7 -188.3,269.1 -269.44,381.9 z m 2630.68,117.6 c -9.24,-181 -17.85,-336 -26.36,-473.9 l 89.75,-6.1 21.89,-1.5 c 0.62,10 1.24,20.1 1.76,30.2 7.99,130.7 15.98,276.7 24.59,445 z m -6397.3,286.5 c -69.51,-140.6 -134.98,-284.3 -196.29,-430.7 l 102.3,-47.5 c 60.38,144 124.7,285.4 193.18,423.8 z m 13950.42,-15.4 c -83.1,-136.1 -165.1,-270.9 -244.6,-398.1 l 93.5,-64.7 c 79.8,127.8 161.9,262.7 245.2,399.1 z m -2311.8,197.3 -105.2,-39.8 c 57.1,-166.5 109.3,-312.4 160.1,-446.2 l 103.8,43.6 c -50.2,132.6 -102.1,277.3 -158.7,442.4 z m 6588.6,66.6 -99.7,-53.4 c 65.3,-135.1 128.9,-278.3 189,-425.8 l 102.7,46.5 c -61,149.8 -125.6,295.4 -192,432.7 z m -15030.9,88.2 -83.73,-78.1 c 92.85,-110.2 187.27,-228.1 288.73,-360.7 l 87.15,73.8 c -102.61,134 -198.16,253.5 -292.15,365 z m 3247.25,326 c -7.99,-160.1 -15.46,-317.4 -23.04,-474.7 l 111.74,-5.9 c 7.47,157.2 14.94,314.5 22.93,474.5 z m 8008.35,114.4 c -78.5,-116 -162.1,-244.8 -255.5,-393.6 l 93.3,-64.9 c 92.8,147.6 175.5,275.3 253.3,390.1 z m -13955.89,27 c -90.89,-113.2 -181.46,-244 -269.33,-389 l 94.2,-63.3 c 85.28,140.4 172.85,267.1 260.52,376.4 z m 10850.09,275 -103.5,-36.4 -2.5,-0.9 c 0.1,-0.2 0.2,-0.5 0.2,-0.7 23.5,-74.3 49.5,-156.1 76.7,-241.2 21.8,-68.2 44.4,-138.4 67.1,-208.6 l 78.4,28.2 27.4,9.8 c -51.1,157.9 -101.3,316 -143.8,449.8 z m -8806.85,-78.7 -68.16,-93.2 c 107.38,-87.1 219.74,-190.5 333.97,-307.7 l 78.02,84.4 c -117.35,120.3 -233.03,226.8 -343.83,316.5 z m 15210.55,62.2 -89.2,-71.1 c 85.6,-119.1 169.7,-249.3 249.7,-387 l 95.4,61.6 c -82,140.9 -168.1,274.3 -255.9,396.5 z m -16509.49,309.3 c -140.48,-45.3 -279.5,-122.7 -413.03,-229.9 l 67.75,-93.6 c 123.05,98.7 250.24,169.7 378.06,210.9 z M 18465.3,14855 c -99.6,-104.8 -198.8,-222 -303.7,-358.3 l 86.8,-74.1 c 102.4,133.1 199.3,247.3 296.1,349.3 z m -8531.58,95.9 c -10.07,-148.5 -19.72,-303.9 -29.37,-475 l 111.65,-7 c 9.6,170.6 19.2,325.6 29.2,473.6 z m -4789.49,-202 -15.15,-116.7 c 131.14,-18.9 268.4,-65.5 407.94,-138.7 l 49.8,105.4 c -150.43,78.9 -299.31,129.3 -442.59,150 z m 15398.87,334.7 -65.7,-95.1 c 112.1,-86.1 223.6,-188.5 331.2,-304.6 l 80.1,82.1 c -112,120.9 -228.3,227.7 -345.6,317.6 z m -5948.7,-75.6 c -36.5,114.5 -68.9,215.2 -99.8,310.1 l -105.8,-38.2 c 39.7,-121.7 81.9,-253.1 132,-410.9 4.1,-12.7 8.2,-25.6 12.3,-38.6 l 106.1,37.4 c -15.7,49.1 -30.5,95.7 -44.8,140.2 z m 4633.5,383.8 c -136.4,-46.6 -275.4,-121.6 -412.8,-223 l 64.1,-96.4 c 128.4,94.6 257.4,164.4 383.2,207.5 z m 465.1,55.2 -10.4,-117.3 c 138,-13.5 278.3,-51.6 416.8,-113 l 43.5,108.4 c -149.1,66.2 -300.5,107.2 -449.9,121.9 z m -9678.3,452.7 c -15.93,-149.4 -31.08,-308.9 -45.09,-474.1 l 111.39,-10.4 c 13.9,164.3 29,322.9 44.9,471.4 z m 4329.7,-129.5 c -36.1,106 -70.8,206.1 -105.1,302.5 -16.9,47.6 -33.7,94.5 -50.5,140.7 l -60.6,-24.4 -43.9,-17.6 c 42.7,-117.6 85.5,-238.9 130.2,-369 8.4,-24.6 16.9,-49.5 25.5,-74.7 l 105.3,39.7 c -0.3,0.9 -0.6,1.9 -0.9,2.8 z M 10146,16844 c -26.4,-147.7 -51.3,-306.3 -73.9,-471.1 l 110.7,-16.9 c 22.4,163.2 47,320 73.2,466.3 z m 3693.7,249.2 -101.5,-49.5 c 59.4,-135 119.9,-280.6 180,-432.8 l 103.2,45.3 c -60.5,153.5 -121.8,300.7 -181.7,437 z m -3469.5,678.5 c -45.8,-141 -88.8,-295.8 -127.8,-460.2 l 108.5,-28.6 c 38.2,161.2 80.3,312.9 125.1,450.7 z m 3206.7,-131.3 c -55,104.4 -110.7,203.3 -166.1,295.6 l -38.1,-25.3 -56.4,-37.6 c 17.8,-29.7 35.8,-60.2 53.6,-91.3 37,-64.5 74.1,-131.9 110.9,-201.6 19.6,-37.4 39.2,-75.4 58.7,-114.1 l 98.8,55.3 c -20.3,40.3 -40.8,80.1 -61.4,119 z m -2791.2,988.3 c -87.1,-116.6 -168.6,-255.1 -242,-411.7 l 100.3,-52.1 c 69.9,149.3 147.2,280.8 229.6,390.9 z m 2332.4,-262.4 c -7.8,10.2 -15.8,20.1 -23.7,30.1 -56.1,70.3 -113,135.9 -170.5,196.3 -29.5,31.2 -59.1,60.8 -88.7,89.1 l -75,-87.4 c 26.9,-25.7 53.9,-52.7 80.8,-81 54.6,-57 108.8,-119.1 162.2,-185.7 10,-12.4 19.9,-24.9 29.7,-37.7 9,-11.6 18.1,-23.3 27,-35.1 l 87.5,73.4 c -9.8,12.8 -19.4,25.5 -29.3,38 z m -1559,766.3 c -155.4,-25.2 -301.3,-83.2 -433.8,-172.6 l 60.3,-99 c 119.3,80.3 250.6,132.6 390.5,155.3 z m 464.5,-5.5 -19.6,-115.8 c 137.4,-25.8 273.1,-76.4 403.3,-150.3 l 53.1,103.6 c -140.8,79.9 -287.7,134.6 -436.8,162.5"
         style="fill:#dce6ff;fill-opacity:1;fill-rule:nonzero;stroke:none"
         id="path16" /><path
         d="m 23261.9,5372.8 c -928,144.8 -776.5,-1163.4 -2099.4,-1163.4 -1209.4,0 -1596.3,4982.1 -2476.3,3557.9 -4511.3,-7301.101 -1891.7,3104.9 -5479.5,3237.2 -1622.2,59.8 -2703.2,-1761.3 -3101.9,-4985.4 C 9526.97,3104.3 8186.86,8242.2 6807.74,7764.5 5931.24,7460.9 6031.62,4209.4 4822.17,4209.4 3499.35,4209.4 3650.79,5517.6 2722.77,5372.8 1723.61,5216.9 1425.18,2901.3 1425.18,2901.3 H 24559.5 c 0,0 -298.4,2315.6 -1297.6,2471.5"
         style="fill:#eef7ff;fill-opacity:1;fill-rule:nonzero;stroke:none"
         id="path18" /><path
         d="m 22440.1,3956.7 c -853.7,61.8 -714.4,-496.8 -1931.4,-496.8 -1112.6,0 -1082.1,1252 -1826.7,1518.1 -1371.1,490 -2501.6,-1990 -3033.2,-745.4 -1009.6,3302.6 -3954.4,4958.9 -5312.9,0 C 9804.28,2988 8561.12,5208.9 7302.66,4978 6528.02,4835.8 6588.65,3459.9 5475.99,3459.9 c -1216.97,0 -1077.65,558.6 -1931.4,496.8 C 2625.38,3890.1 2350.83,2901.3 2350.83,2901.3 H 23633.9 c 0,0 -274.6,988.8 -1193.8,1055.4"
         style="fill:#dce6ff;fill-opacity:1;fill-rule:nonzero;stroke:none"
         id="path20" /><path
         d="m 1442.38,2901.3 c 0,0 -156.42,-394.9 510.1,-503.5 1733.11,-282.4 4362.23,87.7 2538.38,-837.2 -890.04,-451.3 4145.71,-731.6 9951.04,-688.897 6553.3,48.098 9822.1,373.997 7741.3,824.597 -2080.9,450.6 2870,267.8 2353.6,1205 H 1442.38"
         style="fill:#cfddf9;fill-opacity:1;fill-rule:nonzero;stroke:none"
         id="path22" /><path
         d="m 10975.7,17722 c -60.4,7.8 -175.4,18.9 -301.2,30.2 -246.8,22.1 -535.5,45.3 -535.6,45.7 -420.21,-164.9 -871.31,88.2 -864.25,239.3 5.82,127.1 241.31,247.3 532.56,284.7 123.08,25 928.09,147.9 1454.39,230.7 149.6,23.5 276.6,43.8 359.1,57.7 41,6.9 71,12.1 87.3,15.5 516.5,125.3 -179.6,-881.2 -732.3,-903.8"
         style="fill:#f99370;fill-opacity:1;fill-rule:nonzero;stroke:none"
         id="path24" /><path
         d="m 11620.7,18610.3 -946.2,-858.1 c -246.8,22.1 -535.5,45.3 -535.6,45.7 482,462 1122.4,754.6 1122.4,754.6 l 0.3,0.1 c 149.6,23.5 276.6,43.8 359.1,57.7"
         style="fill:#e88064;fill-opacity:1;fill-rule:nonzero;stroke:none"
         id="path26" /><path
         d="m 12814.3,19048.9 c -501.1,-466.2 -1294.7,-979 -1620.1,-1610.1 -41.1,-18.9 -82.8,-37.4 -124.9,-55.7 -22,-9.6 -44.2,-19.1 -66.4,-28.4 -185.5,-77.8 -375.3,-138.8 -540.6,-190.6 -167.5,-52.7 -309.8,-95.8 -396.7,-137.8 -310.02,-574.2 -919.31,-394.1 -984.73,-254.5 -56.55,121 468.12,469.2 570.14,547.1 389.79,284.2 939.79,771.1 1318.09,1003.6 748.2,432.4 1245.4,500.5 1845.2,726.4"
         style="fill:#f99370;fill-opacity:1;fill-rule:nonzero;stroke:none"
         id="path28" /><path
         d="m 11703.8,18261.3 -634.5,-878.2 c -22,-9.6 -44.2,-19.1 -66.4,-28.4 -185.5,-77.8 -375.3,-138.8 -540.6,-190.6 354.9,573.6 1227.8,1089.2 1241.5,1097.2"
         style="fill:#e88064;fill-opacity:1;fill-rule:nonzero;stroke:none"
         id="path30" /><path
         d="m 14433,18721.5 c -1183.2,-751.2 -2075.7,-1080.5 -2758.6,-1522.1 -280.5,-181.4 -525.6,-381.7 -740.8,-637.9 -133.9,-159.3 -256.1,-340.2 -368.2,-551.4 -18.7,-780.3 -816.4,-1091.9 -621.77,-352.4 171.97,811.7 422.27,1358.3 945.37,1887.5 783.5,792.4 2009.4,1568.1 1925.3,1503.7 464.2,221.2 1948.8,8 1618.7,-327.4"
         style="fill:#f99370;fill-opacity:1;fill-rule:nonzero;stroke:none"
         id="path32" /><path
         d="m 11694.5,18079.9 -20.1,-880.5 c -280.5,-181.4 -525.6,-381.7 -740.8,-637.9 -24.1,183.6 -23.3,383.6 35.5,566.5 170.5,530.8 725.4,951.9 725.4,951.9"
         style="fill:#e88064;fill-opacity:1;fill-rule:nonzero;stroke:none"
         id="path34" /><path
         d="m 22042,20000 c -2526.7,-834.2 -5769.3,-2377.9 -7806.1,-3069 -728.1,770.4 -2249.2,216.9 -2315.1,34.6 67.2,-272.4 -69.3,-913.4 -154.7,-1238.4 300.9,-702.3 -300.6,-1311.1 -453.6,-233.7 -269.7,1012.2 -522.6,1793.7 381.6,2586.1 159.3,156.3 330.2,302.6 502,445.3 199.8,166 404.4,328.5 594.5,502.1 548.5,245 1299.6,559.2 2134.2,973 0,0 7117.2,0 7117.2,0"
         style="fill:#f99370;fill-opacity:1;fill-rule:nonzero;stroke:none"
         id="path36" /><path
         d="m 10018.7,15963.5 c 0,0 83.5,-104.9 23.1,-270.7 -60.35,-165.9 -91.96,-309.4 -91.81,-393.2 0,0 -146.83,68.5 68.71,663.9"
         style="fill:#fccfc3;fill-opacity:1;fill-rule:nonzero;stroke:none"
         id="path38" /><path
         d="m 11309.9,15517.1 c 0,0 61.3,31.4 92.9,-106.1 31.6,-137.4 21.7,-299.4 168.9,-498.4 0,0 -198.4,-3 -261.8,604.5"
         style="fill:#fccfc3;fill-opacity:1;fill-rule:nonzero;stroke:none"
         id="path40" /><path
         d="m 13879.2,15743.5 c 41.9,-262.4 -130.5,-526 -281,-733.3 -251.9,-376.4 -617.2,-920.7 -869.8,-1298.1 -376.6,252.2 -922.6,617.8 -1298.4,869.4 -218,134.2 -477.7,313.4 -538.8,571.8 -146.1,421.8 160.4,926.8 595.2,996.1 292.1,74.9 580.9,-94.9 813.4,-269.5 0.5,1.7 147,218.2 152.1,227.2 390.6,608.7 1376.6,354 1427.3,-363.6"
         style="fill:#eb5648;fill-opacity:1;fill-rule:nonzero;stroke:none"
         id="path42" /><path
         d="m 13879.2,15743.5 c 41.9,-262.4 -130.5,-526 -281,-733.3 -251.9,-376.4 -617.2,-920.7 -869.8,-1298.1 l -428.6,2167.8 c 0.5,1.7 147,218.2 152.1,227.2 390.6,608.7 1376.6,354 1427.3,-363.6"
         style="fill:#ce3932;fill-opacity:1;fill-rule:nonzero;stroke:none"
         id="path44" /><path
         d="m 9651.01,17318.9 c 0,0 18.97,-134.8 -150.88,-251.2 -169.85,-116.4 -293.41,-167.8 -419.26,-295.9 0,0 -117.2,157.6 570.14,547.1"
         style="fill:#fccfc3;fill-opacity:1;fill-rule:nonzero;stroke:none"
         id="path46" /><path
         d="m 9983.16,18352.1 c 0,0 -97.56,-112.9 -250.72,-144 -153.15,-31 -274.59,-41.5 -432.91,-102.9 0,0 8.95,210.1 683.63,246.9"
         style="fill:#fccfc3;fill-opacity:1;fill-rule:nonzero;stroke:none"
         id="path48" /><path
         d="m 16612.4,17833.6 c -711.3,-1550.7 -1717.3,-1364.2 -2756.6,-2259.2 -364.4,-351.7 -867.5,-671.5 -951.7,-387.4 -52,175.5 7.2,937.6 782.2,1253.2 179.6,204.8 255,580.2 297.8,749.8 0,0 1286,636.2 2628.3,643.6"
         style="fill:#f99370;fill-opacity:1;fill-rule:nonzero;stroke:none"
         id="path50" /><path
         d="m 13060.3,15077.9 c 0,0 -22.1,332.4 483.2,604.4 0,0 175.1,-89.9 223.8,-190 0,0 -390.3,-434.1 -707,-414.4"
         style="fill:#fccfc3;fill-opacity:1;fill-rule:nonzero;stroke:none"
         id="path52" /><path
         d="m 8760.64,10357.5 c -26.21,-172.6 -34.49,-326.8 -25.1,-413.1 -71.24,90.3 -139.08,173.4 -203.47,249.9 68.22,77.6 67.11,934 -24.6,942.3 -88.93,-2.8 -83.42,-734.2 -40.53,-865.9 -73.06,84.7 -141.3,160.5 -204.58,228 68.12,56 -140.49,980.8 -226.8,960.7 -85.22,-21.8 87.71,-769.6 157.44,-887.9 -83.96,86.7 -158.02,157.8 -221.9,215.7 54.53,66.1 -343.31,965.3 -421.27,929.5 -75.23,-33.2 233.25,-728 324.68,-845.2 -188.97,150.3 -242.04,212.6 -548.28,391.2 -616.39,360.7 -689.64,251.6 -66.97,-109.1 299.73,-186.4 388.59,-152.1 605.89,-349.4 -128.56,51.7 -978.74,124.8 -991.58,43.2 0.53,-83.3 979.51,-157.5 1055.22,-99.4 67.27,-60.9 146.31,-136.8 236.64,-230.5 -114.45,44.9 -997.16,36 -1000.97,-50.4 9.53,-83.5 974.2,-61.6 1044.49,4.8 65.76,-69.7 136.95,-148.1 213.51,-236.6 -126.49,40.8 -979.93,30.7 -983.68,-54 15.5,-82.8 935.58,-61.3 1031.02,-1.3 68.07,-80.1 140.02,-167.6 215.86,-263.4 -126.64,40.8 -979.68,30.7 -983.43,-54 16.32,-82.5 927.97,-61.3 1027.81,-2.4 62.54,-80.1 127.59,-165.7 195.05,-257 -118.35,43.7 -991.88,34.4 -995.77,-51.5 14.54,-82.9 942.77,-61.3 1033.78,-0.1 63.19,-87.7 131.06,-175.9 197.11,-252.8 -114.65,30.9 -974,-100.6 -963.62,-189 25.71,-81.7 926.99,68.6 1002.43,144.2 79.52,-90 159.34,-170.5 238.46,-242.8 -89.43,38.1 -981.68,-170.6 -959.36,-260.6 20.35,-83.7 967.23,150.4 988.4,234.3 114.18,-101.6 226.54,-186 333.96,-256 -114.85,5.3 -880.08,-331.4 -844.37,-417.3 44.97,-77 854.9,292.4 894.17,385.6 139.1,-86.3 268.82,-148.6 381.82,-193.5 -117.1,-18.6 -774.47,-474.9 -723.07,-553.8 59.8,-69.9 762.57,431.3 782.87,531.1 345.9,-125.8 584.7,-117.1 595,-116.6 l -2.5,56.1 c -2.4,-0.1 -234.9,-8.2 -565.7,110.6 74.4,91.6 195.6,876.7 106.2,902 -94.7,8.6 -204.3,-765.4 -166.9,-879.2 -109.2,43 -234.8,102.8 -369.83,185.8 85.74,48.7 289.83,875.4 198.33,902.4 -95.57,18.5 -279.57,-776.8 -239.88,-876.2 -105.75,67.8 -216.68,150 -329.64,249.4 89.61,39 371.16,840.4 281.2,875.2 -93.28,25.5 -346.97,-731.1 -320.64,-839.9 -75.19,68.6 -151.08,144.9 -226.77,229.8 89.19,12.8 382.74,852.4 290.39,881.5 -93.61,26.9 -352.25,-745.8 -320.23,-847.5 -64.54,74.4 -129.63,156.1 -192.67,243.2 89.5,64.7 356.56,824.8 269.34,863.6 -88.59,23.3 -322.69,-661.6 -318.9,-796 -67.53,91.6 -132.58,177.4 -195.15,257.9 81.77,52.9 213.5,905.5 121.02,924.2 -40.26,9.8 -104.71,-191.6 -143.93,-449.8"
         style="fill:#fcb4b4;fill-opacity:1;fill-rule:nonzero;stroke:none"
         id="path54" /><path
         d="m 11724.5,10275.1 c 252.6,177.6 437.6,349.8 413.3,384.4 -65.3,72.1 -824.1,-469.2 -890.3,-586.4 -12.4,142.2 -40.4,285 -83.8,426.8 105,4.9 826.5,720.9 758.8,793.5 -76.9,60.3 -736.9,-613.8 -776.5,-738.2 -45.5,135.9 -103.3,266.1 -173.2,393.6 89.6,-13.8 705.3,871.4 619.7,922.9 -84.8,51.3 -647.7,-781.3 -638.2,-889.8 -56.5,99.7 -120.8,198.3 -192.7,295.4 102.9,43.4 604.7,904.5 522,959 -89.7,37.9 -549.8,-778.4 -558.2,-911 -66.5,86.8 -141.3,173.8 -218.3,256.9 95.6,63.5 457.8,982.3 368.4,1024.5 -93.9,22.9 -419.1,-836.3 -412.9,-975.4 -80.3,88.9 -154.8,174 -224,255.3 96.2,73 451.9,975.8 363.6,1019.3 -92.8,22.2 -411.2,-816.3 -411.4,-962.8 -82.5,98.3 -156.8,190.7 -224.06,277.5 95.86,67.9 455.16,979.6 366.26,1022.3 -92.8,22.3 -411.61,-817.2 -411.48,-963.4 -73.99,97.4 -138.46,187.1 -194.67,269.2 93.5,39.9 470.15,996.3 378.25,1034.2 -94.3,23.5 -423.49,-847.6 -413.54,-982.1 -75.19,112.4 -133.89,209.3 -179.62,290.9 88.63,47.4 359.27,1043.2 263.55,1070.2 -94.13,11.9 -317.3,-848.3 -303.43,-996.9 -147.28,258.4 -74.6,341 -182.33,688.3 -188.76,700.8 -339.96,660 -147.95,-40.2 97.77,-360.3 151.99,-420.6 255.93,-641.8 -105.85,125.7 -794.41,598.1 -852.45,529.1 -62.69,-77.7 836.44,-688.8 911.15,-639.1 43.66,-78 99.05,-169.6 169.03,-275.1 -114.98,103 -912.84,452.4 -959.9,371.8 -45.64,-88.8 948.36,-514.4 1015.39,-453.9 54.72,-79.3 117.14,-165.7 188.19,-259.1 -139.29,77 -974.79,255.8 -1003.77,168.5 -14.91,-98 969.37,-299.6 1066.15,-249.3 64.39,-82.5 135.2,-170 213.1,-262.6 -132,62.4 -1026.84,133.4 -1045.49,40 -4.74,-99.3 1020.89,-168.3 1096.89,-100.7 69.6,-81.4 144.4,-166.7 225,-255.8 -149.9,36.6 -1018.5,-31.7 -1021.98,-124.9 17.53,-96.9 982.18,-11.1 1080.48,60.6 76.9,-83.4 147.9,-168.4 209.9,-250.5 -100.1,57.9 -1082.37,-14.6 -1081.8,-113.3 2.85,-99.7 1073.5,-6.4 1108.4,77.8 70.5,-95.9 130.9,-190 182.7,-281.5 -110.8,53.7 -1072.13,-17.5 -1073.44,-115.7 11.15,-98.8 1032.24,-8.1 1098.54,70.2 73.7,-136.6 128.2,-266.9 168,-388.5 -96.9,65.2 -1078.5,71.8 -1086.2,-26.6 3.3,-99.3 1027.6,-90.9 1100.4,-18.3 47,-154.6 70.5,-294 80.5,-412.8 -117.8,66.2 -1044.9,141.3 -1063.3,46.1 4,-97.8 948.9,-161.5 1067.5,-110.1 17.4,-353.9 -73.9,-580.9 -74.9,-583.2 14.3,-5.9 43,-17.7 57.2,-23.6 4.2,10.1 99.6,245.9 79,620.3 72.5,11.6 262.8,116.5 472.5,264"
         style="fill:#3a72aa;fill-opacity:1;fill-rule:nonzero;stroke:none"
         id="path56" /><path
         d="m 15420.1,11159 c -214.5,-17.4 -400.1,-48.6 -497.1,-80.5 79.8,96.1 152.3,186.9 218.2,272.4 99.4,-51.4 1115.2,163.6 1098.5,264.5 -31.4,89.7 -890.5,-100.2 -1034.7,-180.7 72.7,96.9 136.5,186.4 192.5,268.7 69.4,-62.1 1092.6,383.9 1044.7,475.1 -17.7,40 -268.3,-32.2 -559.7,-161.1 -185.7,-82.1 -343.1,-167.5 -428.3,-229 71.5,109.3 128,204.2 172.6,285 77.3,-50.8 1001.2,586 935.8,665.7 -61,70.3 -766.9,-420.8 -876,-551.7 105.5,228.2 161.5,291.9 259.8,664 193.3,723.5 37.1,765.1 -153,40.4 -108.9,-359.5 -33.1,-443.3 -183.5,-711.4 13.6,152.4 -223,1040.4 -319.8,1026.6 -98.5,-29.1 187.2,-1053.6 279.1,-1102.6 -46.6,-84.5 -106.5,-184.8 -183.3,-301.4 9.7,138 -336.6,1036.4 -433.4,1010.7 -94.4,-40.3 300.3,-1023.5 397.3,-1064.7 -57.5,-85.1 -123.4,-178 -199.1,-279.1 -0.4,150 -335.8,1016 -431.1,991.4 -91.2,-45.5 285.2,-982.2 384.9,-1052.4 -68.8,-90 -145,-185.9 -229.4,-287.9 -0.7,150.2 -335.8,1015.2 -431.1,990.7 -90.5,-46.2 282.1,-973.7 382.2,-1049.4 -70.9,-84.3 -147.2,-172.6 -229.4,-264.9 5.8,142.7 -336.4,1028.9 -432.7,1003.7 -91.6,-44.8 287.7,-988.9 387,-1054.7 -78.8,-86.2 -155.5,-176.4 -223.5,-266.5 -9,136 -490.3,976.8 -582.2,936.3 -84.5,-57.4 438.3,-941.2 545.2,-986 -73.5,-100.7 -139.3,-202.9 -196.9,-306.3 9.6,111.4 -577.8,968.1 -664.6,914 -87.8,-53.9 553.3,-962.9 645.7,-948.2 -71.2,-132 -130,-266.8 -176,-407.3 -41,127.4 -728,819.9 -806.3,756.5 -68.9,-75.8 679.6,-808.8 788.4,-813.7 -43.8,-146.6 -71.8,-294.1 -83.6,-441 -68.2,120 -856.5,674.5 -922.7,599.1 -54.4,-86.7 810.1,-676.9 918.5,-663.1 -18.8,-386.5 81.3,-629.1 85.7,-639.5 l 58.8,24.7 c -1,2.4 -96.8,236 -81.2,601.4 121.7,-52.4 1098.3,19.9 1100.8,120.7 -20.5,98.1 -974.8,14.4 -1096.9,-54.7 9.6,122.7 32.8,266.6 80.3,426.5 74.9,-74.4 1133.3,-76.2 1135.4,26.3 -9.5,101.5 -1020.5,88.1 -1121.1,20.2 40.3,125.7 95.7,260.5 170.8,401.9 68.3,-80.3 1123.8,-167 1134.1,-65 -2.9,101.4 -993.6,168.2 -1108.5,112.1 52.8,94.8 114.5,192.3 186.6,291.8 36.4,-86.6 1142.3,-175.8 1144.3,-72.8 -0.9,101.9 -1013.3,169.9 -1117.1,109.6 63.4,85.1 136.2,173.3 214.9,259.8 101,-73.2 1098.8,-155.4 1115.4,-55.2 -5.1,96.3 -900,160.7 -1055.4,122 82.5,92.5 159.2,181 230.4,265.6 78.2,-69.4 1137.5,8.8 1131.2,111.3 -3.5,43.5 -263.9,57.9 -581.5,32.1"
         style="fill:#e8c0a6;fill-opacity:1;fill-rule:nonzero;stroke:none"
         id="path58" /><path
         d="m 14535.9,12491.5 c -38.1,-149.8 -190.9,-250.8 -319,-326.8 -221.3,-142.9 -541.8,-349.4 -763.7,-492.8 -143,221.5 -350.3,542.6 -492.9,763.6 -85.5,121.9 -182.9,277.5 -156,429.5 19.2,258.9 299.3,458 547.4,394.7 173.2,-27.3 288.3,-184.5 372.3,-331.3 0.6,0.8 128.7,82.6 133.6,86.2 348.8,235.1 816.6,-128.2 678.3,-523.1"
         style="fill:#eb5648;fill-opacity:1;fill-rule:nonzero;stroke:none"
         id="path60" /><path
         d="m 14535.9,12491.5 c -38.1,-149.8 -190.9,-250.8 -319,-326.8 -221.3,-142.9 -541.8,-349.4 -763.7,-492.8 l 270.8,1256.5 c 0.6,0.8 128.7,82.6 133.6,86.2 348.8,235.1 816.6,-128.2 678.3,-523.1"
         style="fill:#ce3932;fill-opacity:1;fill-rule:nonzero;stroke:none"
         id="path62" /><path
         d="m 15069.9,9566.3 v 598.3 h -4527.2 v -598.3 c -228.9,-35.1 -404.2,-232.8 -404.2,-471.5 V 2586.9 c 0,-428.6 1194.4,-776 2667.8,-776 1473.4,0 2667.8,347.4 2667.8,776 v 6507.9 c 0,238.7 -175.3,436.4 -404.2,471.5"
         style="fill:#92abe8;fill-opacity:1;fill-rule:nonzero;stroke:none"
         id="path64" /><path
         d="m 15069.9,10164.6 c 0,-184.5 -1013.4,-334.1 -2263.6,-334.1 -1250.1,0 -2263.6,149.6 -2263.6,334.1 0,184.6 1013.5,334.2 2263.6,334.2 1250.2,0 2263.6,-149.6 2263.6,-334.2"
         style="fill:#8198e2;fill-opacity:1;fill-rule:nonzero;stroke:none"
         id="path66" /><path
         d="m 14866.7,10188 c 0,-119.1 -922.5,-215.6 -2060.4,-215.6 -1137.9,0 -2060.4,96.5 -2060.4,215.6 0,119 922.5,215.6 2060.4,215.6 1137.9,0 2060.4,-96.6 2060.4,-215.6"
         style="fill:#92abe8;fill-opacity:1;fill-rule:nonzero;stroke:none"
         id="path68" /><path
         d="m 12806.3,9170.1 c -607.6,0 -1179.3,35 -1609.8,98.6 -635.6,93.8 -717.1,209 -717.1,298.9 0,35 28.3,63.3 63.3,63.3 34.1,0 61.9,-26.9 63.3,-60.7 6.2,-9.9 78.6,-102.6 656.3,-183 418.8,-58.3 967.1,-90.4 1544,-90.4 576.9,0 1125.2,32.1 1544,90.4 577.7,80.4 650.2,173.1 656.4,183 1.3,33.8 29.1,60.7 63.2,60.7 35,0 63.4,-28.3 63.4,-63.3 0,-89.9 -81.6,-205.1 -717.1,-298.9 -430.5,-63.6 -1002.2,-98.6 -1609.9,-98.6"
         style="fill:#8198e2;fill-opacity:1;fill-rule:nonzero;stroke:none"
         id="path70" /><path
         d="m 12806.3,9472.6 c -607.6,0 -1179.3,35 -1609.8,98.5 -635.6,93.9 -717.1,209.1 -717.1,299 0,34.9 28.3,63.3 63.3,63.3 34.1,0 61.9,-26.9 63.3,-60.7 6.2,-9.9 78.6,-102.6 656.3,-183.1 418.8,-58.3 967.1,-90.4 1544,-90.4 576.9,0 1125.2,32.1 1544,90.4 577.7,80.5 650.2,173.2 656.4,183.1 1.3,33.8 29.1,60.7 63.2,60.7 35,0 63.4,-28.4 63.4,-63.3 0,-89.9 -81.6,-205.1 -717.1,-299 -430.5,-63.5 -1002.3,-98.5 -1609.9,-98.5"
         style="fill:#8198e2;fill-opacity:1;fill-rule:nonzero;stroke:none"
         id="path72" /><path
         d="m 15322.1,2538.9 c 0,-310.7 -1126.1,-562.6 -2515.2,-562.6 -1389.1,0 -2515.1,251.9 -2515.1,562.6 0,310.7 1126,562.6 2515.1,562.6 1389.1,0 2515.2,-251.9 2515.2,-562.6"
         style="fill:#8198e2;fill-opacity:1;fill-rule:nonzero;stroke:none"
         id="path74" /><path
         d="m 12942.9,3247 c -117.7,-208 -386.8,-296.5 -609,-357.9 -388.3,-123.2 -950.5,-301 -1339.8,-424.6 -123.3,388.6 -302,952 -425,1339.7 -78,216.7 -160.1,488.4 -58.1,704.3 134,378.6 632.8,561.7 977.4,366.4 247.3,-111.2 355.1,-392.6 420.7,-645.8 1.2,0.9 225.7,71 234.4,74.4 616.1,208.8 1166.4,-523.4 799.4,-1056.5"
         style="fill:#f2665f;fill-opacity:1;fill-rule:nonzero;stroke:none"
         id="path76" /><path
         d="m 12942.9,3247 c -117.7,-208 -386.8,-296.5 -609,-357.9 -388.3,-123.2 -950.5,-301 -1339.8,-424.6 l 915,1764.6 c 1.2,0.9 225.7,71 234.4,74.4 616.1,208.8 1166.4,-523.4 799.4,-1056.5"
         style="fill:#d84444;fill-opacity:1;fill-rule:nonzero;stroke:none"
         id="path78" /><path
         d="m 12154.9,5609.8 c -34.9,-99.4 -144.8,-158.8 -236.5,-202.8 -158.9,-83.7 -389,-204.6 -548.3,-288.6 -83.8,159 -205.2,389.6 -288.8,548.3 -50.7,87.9 -107.5,199.5 -80.1,301.1 28.7,174.7 230.9,293 395.6,235.1 116,-29 184.7,-142.7 232.9,-247.4 0.5,0.4 92.4,48.3 95.9,50.5 251.1,138.6 547,-136.3 429.3,-396.2"
         style="fill:#f97b78;fill-opacity:1;fill-rule:nonzero;stroke:none"
         id="path80" /><path
         d="m 12154.9,5609.8 c -34.9,-99.4 -144.8,-158.8 -236.5,-202.8 -158.9,-83.7 -389,-204.6 -548.3,-288.6 l 259.6,837.1 c 0.5,0.4 92.4,48.3 95.9,50.5 251.1,138.6 547,-136.3 429.3,-396.2"
         style="fill:#e25959;fill-opacity:1;fill-rule:nonzero;stroke:none"
         id="path82" /><path
         d="m 15204.9,4027.7 c -5.8,-145.7 -127.1,-268.9 -230.5,-364.1 -176.3,-175.3 -431.7,-428.6 -608.4,-604.3 -175.3,176.4 -429.5,432.2 -604.5,608.2 -102.7,95.8 -223.1,220.3 -228,365.9 -33,242.8 186.6,481.3 428,471.6 165.2,8.7 302.3,-114 408.5,-233 0.4,0.8 102.6,101.5 106.4,105.8 276,285.2 778.9,41.5 728.5,-350.1"
         style="fill:#f2665f;fill-opacity:1;fill-rule:nonzero;stroke:none"
         id="path84" /><path
         d="m 15204.9,4027.7 c -5.8,-145.7 -127.1,-268.9 -230.5,-364.1 -176.3,-175.3 -431.7,-428.6 -608.4,-604.3 l 4,1212.7 c 0.4,0.8 102.6,101.5 106.4,105.8 276,285.2 778.9,41.5 728.5,-350.1"
         style="fill:#d84444;fill-opacity:1;fill-rule:nonzero;stroke:none"
         id="path86" /><path
         d="m 14185.7,5126.2 c -30,-196.7 -213.1,-345.2 -367.7,-458.6 -265.5,-210.8 -650,-515.5 -916.3,-726.9 -210.8,265.8 -516.6,651 -727,916.2 -124.8,145.3 -269.1,332.4 -253.6,530.5 -7.9,334 325.8,624.1 651.6,574.2 225.3,-13.3 392.4,-200.2 518.3,-377.7 0.7,1.1 154.6,122 160.3,127.2 417.3,344.8 1062,-61.8 934.4,-584.9"
         style="fill:#f2665f;fill-opacity:1;fill-rule:nonzero;stroke:none"
         id="path88" /><path
         d="m 14185.7,5126.2 c -30,-196.7 -213.1,-345.2 -367.7,-458.6 -265.5,-210.8 -650,-515.5 -916.3,-726.9 l 189.3,1643.2 c 0.7,1.1 154.6,122 160.3,127.2 417.3,344.8 1062,-61.8 934.4,-584.9"
         style="fill:#d84444;fill-opacity:1;fill-rule:nonzero;stroke:none"
         id="path90" /><path
         d="m 14054.2,3591.3 c 53.5,-135.6 -7.7,-297.3 -63.8,-426.2 -90.4,-231.5 -221.7,-566.4 -312.4,-798.6 -231.6,90.6 -567.5,221.8 -798.6,312.2 -132.7,46 -293.2,111.3 -356.5,242.5 -128.2,208.8 -23.8,515.7 201,604.3 147.6,74.7 322.5,17.9 467.8,-48.1 0,1 52.9,134.3 54.6,139.8 137.2,372.4 695.7,352.7 807.9,-25.9"
         style="fill:#f2665f;fill-opacity:1;fill-rule:nonzero;stroke:none"
         id="path92" /><path
         d="m 14054.2,3591.3 c 53.5,-135.6 -7.7,-297.3 -63.8,-426.2 -90.4,-231.5 -221.7,-566.4 -312.4,-798.6 l -486.3,1110.9 c 0,1 52.9,134.3 54.6,139.8 137.2,372.4 695.7,352.7 807.9,-25.9"
         style="fill:#d84444;fill-opacity:1;fill-rule:nonzero;stroke:none"
         id="path94" /><path
         d="m 14950.9,5594.2 c 28.2,-101.5 -27.9,-213.1 -78,-301.5 -82.4,-159.6 -202,-390.4 -284.7,-550.5 -159.7,82.6 -391.2,202.3 -550.5,284.6 -91.9,43.2 -202.3,102.2 -237.9,201.3 -76.4,159.7 21.8,372.4 190.1,419.1 111.7,42.6 233.1,-11.5 332.5,-69.8 0.1,0.6 48.2,92.5 49.8,96.3 126.7,257.3 526.6,201 578.7,-79.5"
         style="fill:#f2665f;fill-opacity:1;fill-rule:nonzero;stroke:none"
         id="path96" /><path
         d="m 14950.9,5594.2 c 28.2,-101.5 -27.9,-213.1 -78,-301.5 -82.4,-159.6 -202,-390.4 -284.7,-550.5 l -265.8,835.2 c 0.1,0.6 48.2,92.5 49.8,96.3 126.7,257.3 526.6,201 578.7,-79.5"
         style="fill:#d84444;fill-opacity:1;fill-rule:nonzero;stroke:none"
         id="path98" /><path
         d="m 12223.2,6937.3 c -68.1,-121.5 -224.7,-173.8 -353.9,-210.1 -226,-72.9 -553.1,-177.9 -779.6,-250.9 -72.8,226.1 -178.4,553.9 -251.1,779.5 -46,126.1 -94.5,284.2 -35.6,410.2 77.1,220.9 367.2,328.9 568.5,216 144.4,-64.1 207.9,-227.8 246.8,-375.2 0.7,0.6 131.3,41.9 136.4,43.9 358.4,123.3 680.9,-301.9 468.5,-613.4"
         style="fill:#f97b78;fill-opacity:1;fill-rule:nonzero;stroke:none"
         id="path100" /><path
         d="m 12223.2,6937.3 c -68.1,-121.5 -224.7,-173.8 -353.9,-210.1 -226,-72.9 -553.1,-177.9 -779.6,-250.9 l 528.6,1030.5 c 0.7,0.6 131.3,41.9 136.4,43.9 358.4,123.3 680.9,-301.9 468.5,-613.4"
         style="fill:#e25959;fill-opacity:1;fill-rule:nonzero;stroke:none"
         id="path102" /><path
         d="m 15088.2,6820.7 c -38.5,-155.1 -196,-260.4 -328.1,-339.7 -228,-149 -558.2,-364.4 -786.9,-513.8 -149.1,228.2 -365.2,559.1 -514,786.8 -89,125.5 -190.6,285.9 -163.6,443.2 18.4,267.9 306.8,475.3 563.8,411.3 179.3,-27.3 299.2,-189.3 386.8,-340.6 0.6,0.8 132.7,86.2 137.7,90 359.4,245 845.1,-128 704.3,-537.2"
         style="fill:#f97b78;fill-opacity:1;fill-rule:nonzero;stroke:none"
         id="path104" /><path
         d="m 15088.2,6820.7 c -38.5,-155.1 -196,-260.4 -328.1,-339.7 -228,-149 -558.2,-364.4 -786.9,-513.8 l 273,1300.7 c 0.6,0.8 132.7,86.2 137.7,90 359.4,245 845.1,-128 704.3,-537.2"
         style="fill:#e25959;fill-opacity:1;fill-rule:nonzero;stroke:none"
         id="path106" /><path
         d="m 13645.9,6873.7 c 28.3,-101.5 -27.9,-213.1 -77.9,-301.5 -82.5,-159.6 -202.1,-390.4 -284.8,-550.4 -159.6,82.6 -391.1,202.2 -550.5,284.6 -91.9,43.1 -202.2,102.2 -237.8,201.2 -76.5,159.7 21.7,372.4 190,419.2 111.7,42.5 233.1,-11.5 332.6,-69.9 0.1,0.7 48.1,92.6 49.8,96.4 126.6,257.3 526.6,201 578.6,-79.6"
         style="fill:#f2665f;fill-opacity:1;fill-rule:nonzero;stroke:none"
         id="path108" /><path
         d="m 13645.9,6873.7 c 28.3,-101.5 -27.9,-213.1 -77.9,-301.5 -82.5,-159.6 -202.1,-390.4 -284.8,-550.4 l -265.7,835.1 c 0.1,0.7 48.1,92.6 49.8,96.4 126.6,257.3 526.6,201 578.6,-79.6"
         style="fill:#d84444;fill-opacity:1;fill-rule:nonzero;stroke:none"
         id="path110" /><path
         d="m 18587.7,8677.2 c 0,0 228.6,-73.1 216.1,-316.1 l -182.4,-37.8 -33.7,353.9"
         style="fill:#f99370;fill-opacity:1;fill-rule:nonzero;stroke:none"
         id="path112" /><path
         d="m 17955.9,6972.3 c -258,50.6 -520.6,103.8 -765.9,198.1 -77.2,27.4 -146.3,60.4 -186.8,139.8 -85.9,152.9 -111.3,352.7 -125.1,530.9 -11.1,65.6 21.6,186.2 -77.2,188 -59.8,-1.4 -69.2,-65.9 -82,-110.9 -16.8,-62.2 -29.8,-124.8 -39.8,-188.7 -101.7,-712.1 200.5,-910.2 826.9,-1109.5 124.3,-37.3 250.3,-69.1 378.7,-88.9 288.6,-39.2 357.4,387.7 71.2,441.2"
         style="fill:#f99370;fill-opacity:1;fill-rule:nonzero;stroke:none"
         id="path114" /><path
         d="m 16966.1,8262.8 c 0,0 -242.6,4.3 -228.6,-281.8 l 143.3,-63.4 85.3,345.2"
         style="fill:#f99370;fill-opacity:1;fill-rule:nonzero;stroke:none"
         id="path116" /><path
         d="m 17174.4,1776.4 573,-44.3 c 50.2,-1.8 53.8,49.2 47.6,89.4 -20.6,144.9 60.5,467.6 82.2,613.3 4.8,26.6 -14.5,51.5 -41.5,53.6 l -252.9,19.5 c -27.4,2.2 -50.4,-20.2 -49.1,-47.6 l 17.7,-369.9 c 6.1,-169 -173.8,-172.4 -289.5,-185.9 -46.2,-7.9 -94.9,-21.8 -119.6,-53.9 -23,-28.7 -4.5,-71.3 32.1,-74.2"
         style="fill:#f99370;fill-opacity:1;fill-rule:nonzero;stroke:none"
         id="path118" /><path
         d="m 17814.3,1786.7 c -3.8,-27.9 -20.2,-58.9 -52.7,-55.7 l -594.3,46 c -30.8,2.3 -50.2,34.7 -37,62.6 28,63 117.5,153.2 399.6,147.4 40,-7.1 130.9,-27.9 265.4,-20.2 0,0 40.1,-75.2 19,-180.1"
         style="fill:#1d3f70;fill-opacity:1;fill-rule:nonzero;stroke:none"
         id="path120" /><path
         d="m 17315.2,1846.4 c 1.5,-0.2 3.2,0 4.8,0.5 6.7,2.2 10.3,9.3 8.2,15.9 -21.9,68.9 -71,93.4 -73,94.4 -6.4,3 -13.9,0.4 -17,-5.9 -3,-6.2 -0.4,-13.8 5.8,-16.8 v 0 c 1.7,-0.9 41.6,-21.3 60.1,-79.4 1.6,-5 6.1,-8.3 11.1,-8.7"
         style="fill:#e8c0a6;fill-opacity:1;fill-rule:nonzero;stroke:none"
         id="path122" /><path
         d="m 17414.2,1850.6 c 1.3,-0.1 2.5,0 3.8,0.3 6.8,1.5 11.1,8.3 9.6,15.1 -17.5,77 -79,115.9 -81.6,117.5 -6,3.7 -13.7,1.9 -17.4,-4 -3.7,-5.9 -1.9,-13.7 4,-17.4 0.6,-0.4 55.2,-35.3 70.2,-101.7 1.3,-5.5 6,-9.4 11.4,-9.8"
         style="fill:#e8c0a6;fill-opacity:1;fill-rule:nonzero;stroke:none"
         id="path124" /><path
         d="m 17527,1855.7 c 1.4,-0.1 2.8,0 4.2,0.4 6.7,1.8 10.8,8.7 9,15.4 -20.6,78.1 -77,122.7 -79.4,124.5 -5.5,4.3 -13.5,3.4 -17.8,-2.1 -4.3,-5.5 -3.3,-13.5 2.2,-17.8 0.5,-0.4 52.2,-41.5 70.5,-111 1.4,-5.4 6,-9 11.3,-9.4"
         style="fill:#e8c0a6;fill-opacity:1;fill-rule:nonzero;stroke:none"
         id="path126" /><path
         d="m 17130.3,1839.6 684,-52.9 c -4.2,-20.7 -11.5,-40.5 -23.4,-57.9 l -623.6,48.2 c -30.3,2.3 -49.7,33.8 -37.5,61.6 0.2,0.3 0.3,0.6 0.5,1"
         style="fill:#10325b;fill-opacity:1;fill-rule:nonzero;stroke:none"
         id="path128" /><path
         d="m 17411.3,2242.4 c 23.3,-75.7 38.2,-119.6 38.2,-119.6 0,0 248.1,-101.6 477.7,-11.2 0,0 -1.1,16.6 -3.1,46.7 -0.1,3.5 -0.4,7.2 -0.7,11.2 -0.7,11.8 -1.6,25.4 -2.5,40.4 -20.1,321.5 -61.5,1268 -43,1506 23.7,305.9 142.9,565.1 272.1,747.2 44.9,63.1 90.9,116.9 134.6,160.2 256.6,254.5 526.7,245 431.7,691.3 -14,65.7 -593.9,36.8 -593.9,36.8 L 17468,5245.9 c 0,0 -288.4,-704.1 -341.9,-1368.9 -42.8,-531.8 196,-1344.3 285.2,-1634.6"
         style="fill:#3a72aa;fill-opacity:1;fill-rule:nonzero;stroke:none"
         id="path130" /><path
         d="m 17827,2158.3 h 97.1 c -0.1,3.5 -0.4,7.2 -0.7,11.2 -0.7,11.8 -1.6,25.4 -2.5,40.4 -20.1,321.5 -61.5,1268 -43,1506 23.7,305.9 142.9,565.1 272.1,747.2 l -14.7,175.8 c 0,0 -250.7,-355.5 -314.9,-679.2 -64.2,-323.9 6.6,-1801.4 6.6,-1801.4"
         style="fill:#23659b;fill-opacity:1;fill-rule:nonzero;stroke:none"
         id="path132" /><path
         d="m 17411.3,2242.4 c 23.3,-75.7 38.2,-119.6 38.2,-119.6 0,0 248.1,-101.6 477.8,-11.2 0,0 -2.5,36.3 -6.4,98.3 l -0.1,0.1 c 0,0 -266,-77.6 -509.5,32.4"
         style="fill:#23659b;fill-opacity:1;fill-rule:nonzero;stroke:none"
         id="path134" /><path
         d="m 20266.8,2464.4 241.7,521.4 c 11,23.8 -0.2,51.8 -24.5,61.6 -128.8,28.8 -307.5,135.6 -421.2,203.7 0,0 -177.9,-236.3 -151.8,-244.7 l 279.1,-144.8 c 46.6,-59.4 37.6,-37.5 22.2,-117.2 -15.3,-101.9 -68.4,-195.7 -26.2,-284.2 18.9,-31.6 65.3,-29.2 80.7,4.2"
         style="fill:#f99370;fill-opacity:1;fill-rule:nonzero;stroke:none"
         id="path136" /><path
         d="m 20480.7,3067.5 c 24.9,-13.3 48.2,-39.5 33.8,-68.8 l -250.7,-540.9 c -12.9,-27.9 -50.1,-34.8 -71.6,-12.8 -49.2,48.4 -102.5,163.7 1.5,426 20.6,35 71.9,112.9 111.6,241.6 0,0 84.6,11.3 175.4,-45.1"
         style="fill:#1d3f70;fill-opacity:1;fill-rule:nonzero;stroke:none"
         id="path138" /><path
         d="m 20250.5,2620.7 c 0.6,1.4 1,3 1.1,4.7 0.4,7 -5,12.9 -12,13.3 -72.2,3.4 -112.3,-33.9 -113.9,-35.5 -5.1,-4.9 -5.3,-12.9 -0.5,-17.9 4.8,-5.1 12.8,-5.3 17.9,-0.5 v 0 c 1.3,1.3 34.4,31.5 95.3,28.5 5.3,-0.2 10,2.8 12.1,7.4"
         style="fill:#e8c0a6;fill-opacity:1;fill-rule:nonzero;stroke:none"
         id="path140" /><path
         d="m 20281.1,2715 c 0.5,1.1 0.9,2.3 1.1,3.6 0.9,7 -4,13.3 -10.9,14.3 -78.2,10.4 -136.2,-33.5 -138.6,-35.4 -5.6,-4.3 -6.5,-12.2 -2.3,-17.8 4.3,-5.5 12.2,-6.5 17.8,-2.3 0.5,0.4 52.3,39.4 119.7,30.3 5.6,-0.7 10.9,2.4 13.2,7.3"
         style="fill:#e8c0a6;fill-opacity:1;fill-rule:nonzero;stroke:none"
         id="path142" /><path
         d="m 20315.7,2822.4 c 0.6,1.2 1,2.6 1.1,4.1 0.7,6.9 -4.4,13.1 -11.3,13.8 -80.3,8 -141.8,-29.3 -144.4,-30.9 -5.9,-3.6 -7.8,-11.4 -4.2,-17.4 3.7,-5.9 11.5,-7.8 17.4,-4.2 0.6,0.4 57.1,34.4 128.7,27.3 5.5,-0.5 10.5,2.5 12.7,7.3"
         style="fill:#e8c0a6;fill-opacity:1;fill-rule:nonzero;stroke:none"
         id="path144" /><path
         d="m 17550.5,2155.3 30.5,6 c -2.4,12.4 -242.2,1247 -214.1,1782 28.1,533.9 358.8,1273.3 362.2,1280.7 l -28.4,12.8 c -3.3,-7.4 -336.4,-752.1 -364.8,-1291.9 -28.4,-538.8 212.2,-1777.2 214.6,-1789.6"
         style="fill:#23659b;fill-opacity:1;fill-rule:nonzero;stroke:none"
         id="path146" /><path
         d="m 20192.2,2445 288.5,622.5 c 17.9,-11.1 33.9,-24.9 46.2,-42.1 l -263.1,-567.6 c -12.8,-27.5 -49.1,-34.7 -70.8,-13.5 -0.3,0.2 -0.5,0.5 -0.8,0.7"
         style="fill:#10325b;fill-opacity:1;fill-rule:nonzero;stroke:none"
         id="path148" /><path
         d="m 17911.4,5205.8 c 184.9,-700.5 331.7,-1245.9 864.8,-1784.9 351.1,-355 898.5,-520.4 1132.2,-556.1 78.8,-11.9 126.3,-15.1 126.3,-15.1 0,0 236.7,199.8 152,497.9 0,0 -39.8,11.1 -102.4,31.6 -195.2,64 -599.2,228.4 -737.2,408.4 -431.8,563.3 -231.7,1040 -449.7,1532.6 l -986,-114.4"
         style="fill:#3a72aa;fill-opacity:1;fill-rule:nonzero;stroke:none"
         id="path150" /><path
         d="m 19908.4,2864.8 c 78.8,-11.9 126.3,-15.1 126.3,-15.1 0,0 236.7,199.8 152,497.9 0,0 -39.8,11.1 -102.4,31.6 0,0 31.8,-324.7 -175.9,-514.4"
         style="fill:#23659b;fill-opacity:1;fill-rule:nonzero;stroke:none"
         id="path152" /><path
         d="m 18042.8,6987.7 c -14.4,125.4 5.3,306.7 22.8,380.7 31.5,146.9 264.6,90 225.9,-54.3 -7.5,4.8 -31.6,-261.3 -15,-335.1 218.8,-65.6 -439.1,-281.1 -233.7,8.7"
         style="fill:#f99370;fill-opacity:1;fill-rule:nonzero;stroke:none"
         id="path154" /><path
         d="m 18293.7,7326.2 c -0.2,-1.7 -0.4,-3.4 -0.8,-5.1 -0.4,-2.4 -0.9,-4.7 -1.4,-7 -5.4,3.6 -20.6,-143.2 -20.7,-249.7 -100.3,-45.5 -212,-25.5 -232.5,-21.3 -4.4,112.6 13.1,252.2 22.3,304.4 2.7,12.3 4.6,19.5 5,20.9 0.8,3.4 1.7,6.6 2.8,9.8 11.2,33.4 36.5,58.8 67.5,71 0.1,0 0.1,0 0.1,0 21.5,8.5 45.7,10.6 69.9,4.7 23.9,-5.8 44.3,-18.6 59.5,-35.7 0.6,-0.6 1.2,-1.4 1.8,-2.1 20.5,-24.2 30.9,-56.6 26.5,-89.9"
         style="fill:#e57d61;fill-opacity:1;fill-rule:nonzero;stroke:none"
         id="path156" /><path
         d="m 17898.7,7597.7 c 0,0 22.3,123.5 74.8,202.6 l 65.2,-46.2 -140,-156.4"
         style="fill:#8e4a35;fill-opacity:1;fill-rule:nonzero;stroke:none"
         id="path158" /><path
         d="m 17837.8,7235.7 c 70.3,-99.2 196.3,-144.6 303.8,-139 33.4,1.2 66.1,7.5 96.4,20.1 v 0 c 10.2,4.3 20.1,9.2 29.6,14.8 l 0.1,-0.1 c 460,333.7 28.9,1072.3 -308.4,543.7 -108.8,-146.6 -266.9,-209 -121.5,-439.5"
         style="fill:#f99370;fill-opacity:1;fill-rule:nonzero;stroke:none"
         id="path160" /><path
         d="m 18084.7,4790.9 c 0.5,0 0.8,0 1.1,0 4.3,0.2 8.3,2.1 11.1,5.4 2.8,3.3 4.1,7.5 3.6,11.8 l -23.8,214.4 c -0.9,8.5 -8.7,14.6 -17.2,13.8 -8.5,-1 -14.6,-8.7 -13.7,-17.2 l 21.3,-191.9 c -6.1,3.2 -13.5,8.3 -21.2,16.4 -32.3,33.9 -68.7,116.7 -58.6,318.8 0.4,8.6 -6.2,15.9 -14.8,16.3 -8.4,0.5 -15.8,-6.1 -16.3,-14.7 -10.7,-216 31.7,-306.2 69.1,-343.9 27.4,-27.5 53.3,-29.2 59.4,-29.2"
         style="fill:#23659b;fill-opacity:1;fill-rule:nonzero;stroke:none"
         id="path162" /><path
         d="m 18060.5,7530.7 c -2.7,8.4 1.9,17.5 10.4,20.1 8.4,2.7 17.5,-1.9 20.2,-10.3 2.7,-8.5 -2,-17.5 -10.4,-20.2 -8.5,-2.7 -17.5,1.9 -20.2,10.4"
         style="fill:#c16256;fill-opacity:1;fill-rule:nonzero;stroke:none"
         id="path164" /><path
         d="m 20053.3,2980.8 6.8,30.4 c -7.4,1.6 -741,170 -1139.4,520.5 -412.1,362.6 -546.1,1136.4 -644,1701.4 l -30.7,-5.3 c 98.7,-569.6 233.8,-1349.6 654.1,-1719.4 404.4,-355.9 1145.7,-525.9 1153.2,-527.6"
         style="fill:#23659b;fill-opacity:1;fill-rule:nonzero;stroke:none"
         id="path166" /><path
         d="m 17930.8,7574.6 c -2.7,8.5 1.9,17.5 10.4,20.2 8.4,2.7 17.5,-2 20.2,-10.4 2.7,-8.4 -2,-17.5 -10.4,-20.2 -8.5,-2.7 -17.5,2 -20.2,10.4"
         style="fill:#c16256;fill-opacity:1;fill-rule:nonzero;stroke:none"
         id="path168" /><path
         d="m 17949.9,7430.8 c 9.1,-2.6 18.7,-3.7 27.1,-2.4 3.3,0.5 5.6,3.6 5.1,6.9 -0.5,3.3 -3.7,5.6 -6.9,5.1 -21.2,-3.2 -48,11.5 -50.5,21.2 -0.8,3.5 4,5.9 8.2,7.4 37,12.9 70.2,73.5 71.6,76.1 1.6,2.9 0.5,6.6 -2.5,8.2 -3,1.7 -6.6,0.5 -8.2,-2.4 -0.3,-0.6 -32.4,-59.1 -64.9,-70.4 -17.8,-6.2 -17.1,-17.3 -16,-21.8 2.9,-11.7 19.1,-22.8 37,-27.9"
         style="fill:#c16256;fill-opacity:1;fill-rule:nonzero;stroke:none"
         id="path170" /><path
         d="m 17984,7711.5 c 93.3,31.3 242.5,-35.3 319.2,-47.1 0,0 -37.6,-128.2 79.4,-242.9 -8.4,-122.2 2.9,-178 -144.6,-304.7 v 0 c 10.2,4.3 20.1,9.2 29.6,14.8 l 0.1,-0.1 c 442.3,317.6 51.8,1045.8 -283.7,580"
         style="fill:#e57d61;fill-opacity:1;fill-rule:nonzero;stroke:none"
         id="path172" /><path
         d="m 17961.4,7982.9 c 65.2,89.2 220.1,118.3 326.9,-22.5 82.3,-108.4 187.4,-124.7 169.5,-221.9 180.7,-120.3 48.9,-319.5 48.9,-319.5 l -95.9,27.4 c -97.1,108.6 -72.1,241 -72.1,241 h 0.1 c -25.2,2.8 -51.2,8.2 -73.5,17.9 -69,30.1 -174.1,56.3 -260.2,39.6 -86,-16.7 -116.5,138.2 -43.7,238"
         style="fill:#8e4a35;fill-opacity:1;fill-rule:nonzero;stroke:none"
         id="path174" /><path
         d="m 18507.8,7337.8 c -18.7,-48.5 -65.6,-75.6 -104.7,-60.5 -39,15.1 -55.5,66.7 -36.8,115.2 18.8,48.5 65.6,75.6 104.7,60.5 39.1,-15.1 55.6,-66.6 36.8,-115.2"
         style="fill:#f99370;fill-opacity:1;fill-rule:nonzero;stroke:none"
         id="path176" /><path
         d="m 18422.6,7420 c 1.7,0.3 41.1,8.6 58.8,-14.1 4.5,-5.7 7,-12.9 7.7,-21.4 v 0 c 0,-0.8 0.2,-1.6 0.2,-2.4 v 0 0 c 0.6,-15.6 -5,-35.5 -16.8,-59.4 -1.3,-2.7 -4.3,-4 -7.1,-3.2 -0.4,0.1 -0.7,0.3 -1,0.4 -3,1.5 -4.3,5.2 -2.8,8.2 9.5,19.4 14.6,35.6 15.4,48.3 -35.6,-0.5 -59.2,-36.4 -59.5,-36.8 -1.4,-2.4 -4.3,-3.4 -6.8,-2.6 -0.5,0.1 -1.1,0.4 -1.6,0.7 -2.8,1.8 -3.6,5.5 -1.9,8.4 1.2,1.8 27.1,42 68.9,42.9 -0.9,3.6 -2.2,6.8 -4.3,9.4 -13,16.7 -46.3,9.8 -46.6,9.7 -3.3,-0.7 -6.5,1.4 -7.2,4.7 -0.7,3.2 1.3,6.5 4.6,7.2"
         style="fill:#c16256;fill-opacity:1;fill-rule:nonzero;stroke:none"
         id="path178" /><path
         d="m 18351.1,7329.4 55,34.3 c 0.3,2.4 0.7,4.9 1.7,7.2 5.7,14 21.6,20.7 35.6,15 14,-5.6 20.7,-21.6 15,-35.5 -5.5,-13.6 -20.7,-20.2 -34.4,-15.4 l -54.9,-34.3 c -4.3,-2.6 -9.2,-3.2 -13.7,-1.9 -3.8,1.1 -7.3,3.6 -9.6,7.3 -5,7.9 -2.6,18.3 5.3,23.3"
         style="fill:#fdffde;fill-opacity:1;fill-rule:nonzero;stroke:none"
         id="path180" /><path
         d="m 17457.4,5346.8 c 2.3,-37 5.9,-71 10.6,-100.9 0,0 756.8,-238 1429.4,74.3 33,155 3.1,267.7 -76.7,578.8 -50.1,174.8 -24.6,423.7 -38.2,510.1 -76.7,420.5 -371.4,534.7 -507,578.6 -69.4,-177.1 -273.4,-129.3 -232.8,-0.1 -584.3,-149.5 -590.4,-1074.4 -585.3,-1640.8"
         style="fill:#ce4abf;fill-opacity:1;fill-rule:nonzero;stroke:none"
         id="path182" /><path
         d="m 18135.3,7543.9 c 1.1,0 2.3,0.2 3.3,0.7 3.9,1.9 5.5,6.5 3.7,10.3 -0.9,2 -24,49.6 -75.7,59.1 -4.2,0.8 -8.2,-2 -9,-6.2 -0.8,-4.2 2,-8.2 6.2,-9 44,-8.1 64.3,-50.1 64.5,-50.5 1.3,-2.8 4.1,-4.4 7,-4.4"
         style="fill:#c16256;fill-opacity:1;fill-rule:nonzero;stroke:none"
         id="path184" /><path
         d="m 17930,7615.5 c 1.1,0 2.2,0.2 3.2,0.6 35.2,15.9 62.5,1 63.7,0.4 3.7,-2.1 8.4,-0.8 10.5,2.9 2.1,3.7 0.8,8.4 -2.9,10.5 -1.4,0.8 -35,19.5 -77.6,0.4 -3.9,-1.8 -5.7,-6.4 -3.9,-10.3 1.3,-2.8 4.1,-4.5 7,-4.5"
         style="fill:#c16256;fill-opacity:1;fill-rule:nonzero;stroke:none"
         id="path186" /><path
         d="m 18624.5,6520.8 c 290.8,237.1 598.9,554 604.4,954.4 -28.3,327.9 -193,632.1 -407.6,875.8 -7.2,5.3 -25.9,29.6 -33.1,35.2 -48.1,68.7 -156.9,17.3 -126.9,-62.7 111.4,-255.1 204.7,-530.8 192.9,-812 -25.1,-245 -319.8,-477.3 -500,-634.8 -229.7,-181.8 33.4,-528.4 270.3,-355.9"
         style="fill:#f99370;fill-opacity:1;fill-rule:nonzero;stroke:none"
         id="path188" /><path
         d="m 18691.7,5057.1 c 1.2,0 2.4,0.2 3.6,0.4 192.6,44.8 188,168.5 187.7,173.8 -0.3,4.9 -2.8,9.4 -6.9,12.1 -4.1,2.7 -9.2,3.3 -13.9,1.7 -182.9,-65.5 -370.4,-99.6 -372.3,-99.9 -8.4,-1.6 -14,-9.7 -12.5,-18.1 1.5,-8.5 9.6,-14 18,-12.6 1.9,0.4 176,32 353.5,92.9 -8.7,-32.4 -41,-91.7 -160.7,-119.6 -8.3,-1.9 -13.6,-10.3 -11.6,-18.6 1.7,-7.2 8.1,-12.1 15.1,-12.1"
         style="fill:#23659b;fill-opacity:1;fill-rule:nonzero;stroke:none"
         id="path190" /><path
         d="m 16373.1,9353.9 c 184.1,-449.6 451.5,-1102.9 635.9,-1553.6 451.5,185 1103.4,451.1 1553.7,635.6 258.5,94.5 570.2,226 690.2,485.1 385.1,670 -341,1488.3 -1054.1,1179.9 -10,-4.9 -270.4,-110 -271.9,-111.2 -102.5,295 -258.2,619.5 -563.4,727.9 -429.1,199 -1005.1,-67.3 -1127.8,-531 -100.5,-266.9 23.5,-582.4 137.4,-832.7"
         style="fill:#eb5648;fill-opacity:1;fill-rule:nonzero;stroke:none"
         id="path192" /><path
         d="m 18673.6,8293.5 c -120.5,29.8 -140.2,147.8 -138.4,218.7 0.4,21.3 0.4,54.4 29.7,52.7 12.6,-1 22.4,-10.9 23.7,-23.1 1.9,-59.3 27.9,-121 76.6,-155.6 44.3,-33.9 51.7,-127.8 8.4,-92.7"
         style="fill:#f99370;fill-opacity:1;fill-rule:nonzero;stroke:none"
         id="path194" /><path
         d="m 18294.7,6476.8 c 243.4,-194.6 586.2,38.1 763.5,329.1 386.1,515.6 194.5,1210.9 -218.4,1527.9 0,0 -57.1,-74.1 -152.4,-76.2 46.7,-167.2 142.5,-523.4 116.8,-766.7 -33.2,-264.5 -387.3,-367.6 -496.1,-513 -108.7,-145.4 -118.1,-412.2 -13.4,-501.1"
         style="fill:#ce4abf;fill-opacity:1;fill-rule:nonzero;stroke:none"
         id="path196" /><path
         d="m 16636.6,7298.1 c -20.2,-412.1 500.4,-736.8 975.1,-808.6 l 431,498.1 c -139.8,68.7 -863,141.1 -986.8,310.6 -63.6,71.5 -155.2,370 -171.5,564.8 0,0 -85.8,-16.4 -168.3,54.6 -46.3,-155.6 -88.4,-340.7 -79.5,-619.5"
         style="fill:#ce4abf;fill-opacity:1;fill-rule:nonzero;stroke:none"
         id="path198" /><path
         d="m 17970,7368.9 c 44.2,0 70.3,23 71.8,24.4 2.5,2.3 2.7,6.2 0.4,8.8 -2.3,2.5 -6.2,2.7 -8.8,0.4 -1.8,-1.7 -46.1,-40.2 -118.5,-8.8 -3.1,1.3 -6.8,-0.1 -8.2,-3.3 -1.3,-3.1 0.1,-6.8 3.3,-8.1 22.5,-9.8 42.7,-13.4 60,-13.4"
         style="fill:#c16256;fill-opacity:1;fill-rule:nonzero;stroke:none"
         id="path200" /><path
         d="m 16373.1,9353.9 c 184.1,-449.6 451.5,-1102.9 635.9,-1553.6 l 917.9,2189.4 c -102.5,295 -258.2,619.5 -563.4,727.9 -429.1,199 -1005.1,-67.3 -1127.8,-531 -100.5,-266.9 23.5,-582.4 137.4,-832.7"
         style="fill:#ce3932;fill-opacity:1;fill-rule:nonzero;stroke:none"
         id="path202" /><path
         d="m 16874.1,7906 c 76,38.2 111.1,115.5 119.7,185.9 2.7,21.1 7.6,53.9 -21.6,56.4 -12.7,1 -23.9,-7.4 -26.9,-19.3 -10.6,-58.4 -45.3,-115.6 -98.6,-142.7 -48.8,-27 -20.5,-108.7 27.4,-80.3"
         style="fill:#f99370;fill-opacity:1;fill-rule:nonzero;stroke:none"
         id="path204" /><path
         d="m 18714.2,6592 c 0,0 38.3,-46.3 50.6,-99.7 81.1,53.3 194.4,164.3 293.4,313.6 0,0 -165.7,-153.2 -344,-213.9"
         style="fill:#a523a2;fill-opacity:1;fill-rule:nonzero;stroke:none"
         id="path206" /><path
         d="m 17206.6,6610.1 c 104.3,-43.2 225.6,-81 365.8,-112.1 0,0 7.6,50.9 37,92 0,0 -188.9,-30.3 -402.8,20.1"
         style="fill:#a523a2;fill-opacity:1;fill-rule:nonzero;stroke:none"
         id="path208" /><path
         d="m 18112.2,6826.4 c 164.6,-2.6 195.9,151.5 195.9,151.5 -20.4,7 -32.6,9.8 -32.6,9.8 -50.7,-119.3 -144.5,-129.2 -194.5,-105.4 -59.8,28.4 -40.2,97.9 -38.3,105.3 -15.8,-4.9 -31.5,-10.3 -46.9,-16.2 -6.9,-50.3 -3.4,-143 116.4,-145"
         style="fill:#a523a2;fill-opacity:1;fill-rule:nonzero;stroke:none"
         id="path210" /><path
         d="m 18687.4,8257.6 c 0,0 5.9,-19.8 15.1,-53.6 115,-14.6 190.7,81.8 190.7,81.8 -32.6,31.4 -53.4,48 -53.4,48 0,0 -57.1,-74.1 -152.4,-76.2"
         style="fill:#a523a2;fill-opacity:1;fill-rule:nonzero;stroke:none"
         id="path212" /><path
         d="m 16694.2,7841.7 c 94.2,-71.3 197.6,-41.4 197.6,-41.4 v 0.1 c -3,21.4 -5.6,42.3 -7.4,62.6 0,0 -85.8,-16.4 -168.3,54.6 0,0 -9.5,-27.5 -21.9,-75.9"
         style="fill:#a523a2;fill-opacity:1;fill-rule:nonzero;stroke:none"
         id="path214" /><path
         d="m 17457.4,5346.8 c 2.3,-37 5.9,-71 10.6,-100.9 0,0 756.8,-238 1429.4,74.3 0,0 12.9,22 13,93.1 0,0 -332.2,-133.1 -728.5,-159.2 -233,-15.4 -524.2,42.5 -724.5,92.7"
         style="fill:#a523a2;fill-opacity:1;fill-rule:nonzero;stroke:none"
         id="path216" /><path
         d="m 14982.7,8413.2 -150.4,110.9 -176.5,-61 59,177.2 -112.6,149.1 186.8,-1.3 107,153.1 56.5,-178.1 178.7,-54.4 -152,-108.7 3.5,-186.8"
         style="fill:#ffffff;fill-opacity:1;fill-rule:nonzero;stroke:none"
         id="path218" /><path
         d="m 15161.6,8177.7 -62.8,46.3 -73.7,-25.5 24.6,74 -47,62.3 78,-0.6 44.7,63.9 23.6,-74.3 74.6,-22.7 -63.5,-45.4 1.5,-78"
         style="fill:#ffffff;fill-opacity:1;fill-rule:nonzero;stroke:none"
         id="path220" /><path
         d="m 10511.8,8869 -62.7,46.3 -73.8,-25.4 24.7,74 -47,62.2 78,-0.6 44.6,64 23.6,-74.4 74.6,-22.7 -63.4,-45.4 1.4,-78"
         style="fill:#ffffff;fill-opacity:1;fill-rule:nonzero;stroke:none"
         id="path222" /><path
         d="m 12785,7845.4 -76.6,15.1 -55.8,-54.5 -9.3,77.4 -69.1,36.2 70.8,32.8 13.1,76.9 53,-57.2 77.2,11.4 -37.9,-68.2 34.6,-69.9"
         style="fill:#ffffff;fill-opacity:1;fill-rule:nonzero;stroke:none"
         id="path224" /><path
         d="m 13023.6,8082.9 -118,73.3 -127.2,-55.7 33.2,134.8 -92.3,103.8 138.5,10.1 70.2,119.8 52.4,-128.6 135.7,-29.7 -106.1,-89.6 13.6,-138.2"
         style="fill:#ffffff;fill-opacity:1;fill-rule:nonzero;stroke:none"
         id="path226" /><path
         d="m 13869.4,13963.6 -62.8,46.3 -73.7,-25.5 24.6,74 -47,62.3 78,-0.6 44.7,63.9 23.6,-74.3 74.6,-22.8 -63.5,-45.3 1.5,-78"
         style="fill:#ffffff;fill-opacity:1;fill-rule:nonzero;stroke:none"
         id="path228" /><path
         d="m 16490.9,5943.4 -75.7,18.8 -58.3,-51.8 -5.6,77.8 -67.3,39.5 72.3,29.3 16.8,76.2 50.2,-59.6 77.6,7.5 -41.2,-66.2 31.2,-71.5"
         style="fill:#ffffff;fill-opacity:1;fill-rule:nonzero;stroke:none"
         id="path230" /><path
         d="m 11104.8,14158.2 -62.7,46.2 -73.7,-25.4 24.6,74 -47,62.2 78,-0.5 44.7,63.9 23.5,-74.3 74.6,-22.8 -63.4,-45.4 1.4,-77.9"
         style="fill:#ffffff;fill-opacity:1;fill-rule:nonzero;stroke:none"
         id="path232" /><path
         d="m 18496.2,10837.7 -62.7,46.3 -73.7,-25.5 24.6,74 -47,62.3 78,-0.6 44.7,63.9 23.5,-74.3 74.6,-22.8 -63.4,-45.4 1.4,-77.9"
         style="fill:#ffffff;fill-opacity:1;fill-rule:nonzero;stroke:none"
         id="path234" /><path
         d="m 6629.52,9327.8 -62.76,46.3 -73.73,-25.4 24.64,74 -46.99,62.2 77.99,-0.6 44.68,64 23.56,-74.4 74.61,-22.7 -63.43,-45.4 1.43,-78"
         style="fill:#ffffff;fill-opacity:1;fill-rule:nonzero;stroke:none"
         id="path236" /><path
         d="m 8905.15,11275 -62.76,46.3 -73.72,-25.5 24.63,74 -46.99,62.3 77.99,-0.6 44.68,63.9 23.57,-74.3 74.6,-22.7 -63.43,-45.4 1.43,-78"
         style="fill:#ffffff;fill-opacity:1;fill-rule:nonzero;stroke:none"
         id="path238" /><path
         d="m 13501.6,11176 -62.8,46.3 -73.7,-25.4 24.7,74 -47,62.2 78,-0.5 44.6,63.9 23.6,-74.4 74.6,-22.7 -63.4,-45.4 1.4,-78"
         style="fill:#ffffff;fill-opacity:1;fill-rule:nonzero;stroke:none"
         id="path240" /><path
         d="m 9396.01,5454.4 -62.77,46.3 -73.72,-25.5 24.64,74 -46.99,62.3 77.99,-0.6 44.68,63.9 23.56,-74.3 74.61,-22.8 -63.43,-45.3 1.43,-78"
         style="fill:#ffffff;fill-opacity:1;fill-rule:nonzero;stroke:none"
         id="path242" /><path
         d="m 15072.8,5916.6 -62.7,46.3 -73.7,-25.5 24.6,74 -47,62.3 78,-0.6 44.7,63.9 23.5,-74.3 74.6,-22.8 -63.4,-45.3 1.4,-78"
         style="fill:#ffffff;fill-opacity:1;fill-rule:nonzero;stroke:none"
         id="path244" /><path
         d="m 10775.8,5326.6 -75.3,20.3 -59.4,-50.5 -4,77.9 -66.4,40.9 72.9,27.8 18.3,75.8 49,-60.7 77.8,6 -42.6,-65.4 29.7,-72.1"
         style="fill:#ffffff;fill-opacity:1;fill-rule:nonzero;stroke:none"
         id="path246" /><path
         d="m 10744.5,8540.8 -108.6,80.1 -127.6,-44 42.6,128.1 -81.3,107.7 135,-0.9 77.3,110.6 40.8,-128.7 129.2,-39.3 -109.8,-78.6 2.4,-135"
         style="fill:#ffffff;fill-opacity:1;fill-rule:nonzero;stroke:none"
         id="path248" /><path
         d="m 15865,9576.2 -128.4,41.6 -107.1,-82.2 -0.1,135.1 -111.3,76.4 128.4,41.9 38.4,129.4 79.4,-109.2 135,3.6 -79.3,-109.3 45,-127.3"
         style="fill:#ffffff;fill-opacity:1;fill-rule:nonzero;stroke:none"
         id="path250" /><path
         d="m 8060.18,8311.3 -108.66,80.1 -127.64,-44 42.66,128.1 -81.36,107.7 135.03,-0.9 77.35,110.6 40.79,-128.7 129.16,-39.4 -109.81,-78.5 2.48,-135"
         style="fill:#ffffff;fill-opacity:1;fill-rule:nonzero;stroke:none"
         id="path252" /><path
         d="m 9743.24,7152.2 -108.66,80.2 -127.64,-44.1 42.66,128.1 -81.36,107.8 135.03,-1 77.35,110.7 40.79,-128.7 129.16,-39.4 -109.81,-78.6 2.48,-135"
         style="fill:#ffffff;fill-opacity:1;fill-rule:nonzero;stroke:none"
         id="path254" /><path
         d="m 16194.7,7726.8 -108.7,80.2 -127.6,-44.1 42.6,128.1 -81.3,107.8 135,-1 77.3,110.7 40.8,-128.8 129.2,-39.3 -109.8,-78.6 2.5,-135"
         style="fill:#ffffff;fill-opacity:1;fill-rule:nonzero;stroke:none"
         id="path256" /><path
         d="m 16743.5,11095.4 -108.6,80.2 -127.7,-44.1 42.7,128.1 -81.4,107.8 135.1,-1 77.3,110.7 40.8,-128.7 129.2,-39.4 -109.8,-78.6 2.4,-135"
         style="fill:#ffffff;fill-opacity:1;fill-rule:nonzero;stroke:none"
         id="path258" /><path
         d="m 12111.4,12280.9 -108.7,80.2 -127.6,-44.1 42.6,128.1 -81.3,107.8 135,-1 77.4,110.7 40.8,-128.7 129.1,-39.4 -109.8,-78.6 2.5,-135"
         style="fill:#ffffff;fill-opacity:1;fill-rule:nonzero;stroke:none"
         id="path260" /><path
         d="m 7879.22,1884.6 c -46.28,14.8 -75.65,60.3 -69.93,108.5 0,0 735.28,2208.3 297.18,3190.8 -130.45,292.6 -560.23,290.4 -1049.25,55.4 C 6912.18,4708.5 6976.31,4223 6755.78,3860.2 6594.07,3594.1 6266.82,3381.6 5654.5,3328 l 88.2,-543.1 c 5,-30.9 42.06,-44.1 65.48,-23.4 68.35,76.9 31.22,188.2 53.14,294.6 7.55,48 47.95,83.3 96.48,85.7 1373.82,69 1506.71,642.7 1625.38,1196.5 0,0 130.96,-1288.3 6.51,-2405 -5.46,-49 -20.56,-182 -10.97,-211.2 l 549.57,3.7 c 31.59,0.2 50.81,35.3 33.56,61.7 -66.03,78.5 -180.98,59.3 -282.63,97.1"
         style="fill:#f99370;fill-opacity:1;fill-rule:nonzero;stroke:none"
         id="path262" /><path
         d="m 7522.87,6092.7 c -276.2,104 -629.11,212.4 -786.01,476.2 -281.17,472.8 60.76,924 354.44,1201.4 43.31,46 103.24,96.8 159.94,37.4 60.38,-70.7 -30.27,-136 -61.87,-196.3 -375.36,-619.8 -146.04,-845.4 427.13,-1036 277.6,-92.2 186.82,-565.3 -93.63,-482.7"
         style="fill:#f99370;fill-opacity:1;fill-rule:nonzero;stroke:none"
         id="path264" /><path
         d="m 7097.29,7776.1 c 0,0 30.87,-72 144.06,-91.6 0,0 -5.14,-27.8 -29.84,-40.1 0,0 -93.64,2.1 -149.2,98.8 0,0 6.86,21.9 34.98,32.9"
         style="fill:#eb5648;fill-opacity:1;fill-rule:nonzero;stroke:none"
         id="path266" /><path
         d="m 7735.68,6588.2 c 0,0 -248.48,89.4 -527.34,199.9 -278.86,110.6 -99.45,434.3 -180.99,470.3 0,0 -170.42,-17.5 -266.56,108.9 0,0 -200.76,-49.9 -177.87,-468.5 22.88,-418.6 367.36,-700.2 646.3,-771.9 l 506.46,461.3"
         style="fill:#1d3f70;fill-opacity:1;fill-rule:nonzero;stroke:none"
         id="path268" /><path
         d="m 7936.33,7531.3 c 0,0 126.9,76.2 224.27,-87.5 97.38,-163.7 30.22,-181.9 171.04,-361.7 140.81,-179.8 -84.61,-409.3 -231.86,-427.3 -147.25,-18 -15.7,-211.4 -302.42,-205.9 -286.73,5.6 -856.1,853.6 138.97,1082.4"
         style="fill:#c92828;fill-opacity:1;fill-rule:nonzero;stroke:none"
         id="path270" /><path
         d="m 7991.14,6053 c 294.49,-19.7 547.5,-6.1 843.85,161.5 401.55,227.1 325.87,833.9 173.43,1208 -20.37,59.8 -53.89,130.8 -130.11,100.2 -84.21,-39.3 -28.77,-136.3 -24.95,-204.2 84.97,-719.7 -194.77,-857.3 -885.89,-752.7 -289.99,38.4 -265.79,-471.8 23.67,-512.8"
         style="fill:#f99370;fill-opacity:1;fill-rule:nonzero;stroke:none"
         id="path272" /><path
         d="m 9005.35,7430.2 c 0,0 -57.92,-52.8 -169.04,-23.7 0,0 -6.82,-27.4 10.55,-48.9 0,0 86.08,-36.9 176.7,28.1 0,0 2.84,22.9 -18.21,44.5"
         style="fill:#eb5648;fill-opacity:1;fill-rule:nonzero;stroke:none"
         id="path274" /><path
         d="m 7977.86,6640.6 -10.39,-74.8 c 39.59,-39.4 63.5,-554.3 57.55,-580.7 -11.49,-51 -104.78,-119.6 -153.82,19.3 -15.97,45.3 -125.8,566.4 -135.49,583.8 0,0 1.63,102.1 4.5,135.3 l 237.65,-82.9"
         style="fill:#f99370;fill-opacity:1;fill-rule:nonzero;stroke:none"
         id="path276" /><path
         d="m 5704.06,3352.9 c -17.99,-5.2 -34.98,-13.1 -49.56,-24.9 l 88.92,-547.6 c 4.32,-26.6 33.66,-41.6 57.36,-28.7 55.34,30.3 128.84,116.3 101.06,370.8 0,0 -39.51,81.8 -36.87,227.1 0,0 -88.02,24.5 -160.91,3.3"
         style="fill:#eb5648;fill-opacity:1;fill-rule:nonzero;stroke:none"
         id="path278" /><path
         d="m 5801.62,2752.1 -97.56,600.8 c -17.99,-5.2 -34.98,-13.1 -49.56,-24.9 l 88.92,-547.6 c 4.34,-27 34.52,-42 58.2,-28.3"
         style="fill:#ce3932;fill-opacity:1;fill-rule:nonzero;stroke:none"
         id="path280" /><path
         d="m 7561.66,1774.9 c 2.36,-18.6 7.62,-36.6 17.05,-52.8 l 554.92,3.7 c 26.98,0.2 46.33,26.9 37.22,52.2 -21.47,59.4 -95.2,145.2 -351.07,156.8 0,0 -86.85,-26.4 -230.09,-1.5 0,0 -37.74,-83.2 -28.03,-158.4"
         style="fill:#eb5648;fill-opacity:1;fill-rule:nonzero;stroke:none"
         id="path282" /><path
         d="m 8170.52,1778.9 -608.86,-4 c 2.36,-18.6 7.62,-36.6 17.05,-52.8 l 554.92,3.7 c 27.36,0.1 46.78,27.7 36.89,53.1"
         style="fill:#ce3932;fill-opacity:1;fill-rule:nonzero;stroke:none"
         id="path284" /><path
         d="m 7759.34,6928.9 c 0.09,-4 0.31,-8.1 0.77,-12.1 5.7,2.9 -27.14,-129.6 -39.41,-233.5 102.7,-83.8 234.14,-61.9 254.55,-60.2 17.83,131.3 20.04,252.7 9.69,330.3 -24.4,132.1 -230.09,109.6 -225.6,-24.5"
         style="fill:#e57d61;fill-opacity:1;fill-rule:nonzero;stroke:none"
         id="path286" /><path
         d="m 7057.22,5239.3 c 0,0 151.12,174.8 151.12,531.6 0,181.3 18.01,292.9 20.38,342.2 -30.92,259.2 346.58,416.8 506.96,475.1 64.35,-102.5 122.48,-564.2 213.66,-577.2 100.94,21.3 17.53,527.7 19.97,555.9 61.31,-113.2 162.23,-291.3 220.57,-383.4 57.05,-91.5 92.75,-174 95.79,-270 5.05,-222.5 -239.02,-409.2 -110.52,-807 0,0 -439.47,-320.9 -1117.93,132.8"
         style="fill:#1d3f70;fill-opacity:1;fill-rule:nonzero;stroke:none"
         id="path288" /><path
         d="m 8113.79,6724.8 c -92.9,-67.7 -219.24,-70 -313.79,-32.6 -5.36,2.2 -10.82,4.3 -15.91,6.7 -202.55,90.4 -208.59,430.1 -92.74,586.9 72.18,108.1 232.12,154.3 340.93,75.9 75.25,-57.7 92.44,-147.1 114.5,-241.9 7.21,-24.9 23.48,-58.5 40.92,-82.5 66.59,-94.2 45.5,-220.8 -73.91,-312.5"
         style="fill:#f99370;fill-opacity:1;fill-rule:nonzero;stroke:none"
         id="path290" /><path
         d="m 7872.25,7193.3 c -179.9,-26.8 -183.69,-168.1 -183.69,-168.1 l -55.64,83.4 187.17,235.8 154.62,46.2 c 35.03,-10.4 65.15,-30.7 89.01,-58.5 0,0 -11.57,-112 -191.47,-138.8"
         style="fill:#e57d61;fill-opacity:1;fill-rule:nonzero;stroke:none"
         id="path292" /><path
         d="m 8072.79,6864.5 -118.48,87.9 c -25.01,-76.7 48.57,-140.7 118.48,-87.9"
         style="fill:#f9f8f3;fill-opacity:1;fill-rule:nonzero;stroke:none"
         id="path294" /><path
         d="m 8003.91,7056.3 c 11.92,15.7 -12.95,34.1 -24.4,18.1 -11.93,-15.7 12.94,-34.1 24.4,-18.1"
         style="fill:#c16256;fill-opacity:1;fill-rule:nonzero;stroke:none"
         id="path296" /><path
         d="m 8133.2,7056.4 c 11.92,15.7 -12.95,34 -24.4,18 -11.92,-15.6 12.94,-34 24.4,-18"
         style="fill:#c16256;fill-opacity:1;fill-rule:nonzero;stroke:none"
         id="path298" /><path
         d="m 8071.83,6858.8 c -3.28,0.2 -118.18,87.7 -120.95,89 -2.54,1.9 -3.07,5.5 -1.18,8 1.44,14.6 123.37,-88 126.51,-86.7 4.84,-3.3 1.31,-11.4 -4.38,-10.3"
         style="fill:#c16256;fill-opacity:1;fill-rule:nonzero;stroke:none"
         id="path300" /><path
         d="m 8063.84,6934.3 c -6.96,1.9 -21.98,3 -18.67,12.9 1.45,2.8 4.92,3.9 7.73,2.4 17.93,-9.9 66.33,-4.4 46.45,12.8 -29.18,22.8 -40.54,87.1 -41.01,89.9 -1.36,7.2 10.15,9.3 11.31,1.9 0.11,-0.6 11.08,-62.7 36.76,-82.7 30.56,-30.2 -15.13,-41.4 -42.57,-37.2"
         style="fill:#c16256;fill-opacity:1;fill-rule:nonzero;stroke:none"
         id="path302" /><path
         d="m 7969.31,6566.9 c 0,0 71.77,14.7 182.93,0 111.16,-14.8 450.52,19.8 549.06,101.1 98.55,81.3 95.43,235.7 154.07,252.8 0,0 139.73,-56.4 275.74,0 0,0 67.35,-34.2 44.46,-227.6 -22.89,-193.4 -117.89,-649.6 -902.46,-691.3 0,0 -251.33,252.8 -303.8,565"
         style="fill:#1d3f70;fill-opacity:1;fill-rule:nonzero;stroke:none"
         id="path304" /><path
         d="m 8217.64,3564.2 c -29.97,-9.9 -59.63,-18.8 -88.86,-26.7 -19.21,-5.3 -38.11,-10.1 -57,-14.5 -70.71,-16.6 -139.42,-27.8 -206.02,-34.5 -18.58,-1.9 -37.05,-3.5 -55.31,-4.5 -77.05,-5.1 -151.03,-4 -221.75,1.8 -17.94,1.3 -35.57,3 -52.98,5.1 -68.82,7.9 -134.15,20.3 -195.79,35.6 -17.41,4.4 -34.62,9 -51.4,13.8 -87.18,24.8 -166.23,55.5 -236.21,87.8 -16.57,7.6 -32.51,15.4 -48.02,23.3 -71.56,35.7 -132.25,72.7 -180.69,105.2 -16.05,10.9 -30.72,21.1 -43.91,30.8 -60.06,43.6 -92.14,74 -92.14,74 132.67,166.2 151.14,712.3 176.57,1007 32.62,379.2 326.03,696.2 326.03,696.2 15.62,-5 31.03,-9.7 46.44,-14.3 17.73,-5.3 35.36,-10.2 52.78,-15.1 61.32,-16.6 120.74,-30.3 177.73,-41.2 18.26,-3.6 36.31,-6.9 54.04,-10 33.88,-5.7 66.81,-10.5 98.58,-14.6 18.16,-2.3 35.89,-4.5 53.3,-6.1 28.92,-3.2 56.68,-5.5 83.49,-7.3 18.05,-1.3 35.67,-2.4 52.77,-3.1 23.01,-1 45.07,-1.7 66.18,-2 18.89,-0.3 36.94,-0.3 54.04,-0.2 33.77,0.3 64.17,1.5 90.87,2.9 20.26,1.2 38.42,2.7 54.25,4.1 50.35,4.5 78,9.6 78,9.6 0,0 133.09,-350.4 161.17,-755.8 50.34,-724.9 -96.16,-1147.3 -96.16,-1147.3"
         style="fill:#9358e0;fill-opacity:1;fill-rule:nonzero;stroke:none"
         id="path306" /><path
         d="m 7969.31,6566.9 c 0,0 57.04,53.6 136.33,4.7 0,0 61.31,-544.2 -156.32,-649.2 0,0 -247.23,48 -316.4,703.4 0,0 83.44,3.5 102.76,-37.6 0,0 121.87,-238.8 213.64,-554.3 0,0 34.86,266.6 19.99,533"
         style="fill:#163356;fill-opacity:1;fill-rule:nonzero;stroke:none"
         id="path308" /><path
         d="m 8032.25,7361.7 c -0.04,159.7 -318.66,481.3 -629.08,112.3 -225.67,-294.5 -758.36,-572.9 -366.67,-820.9 154.72,-54.4 4.59,-185.2 95.68,-279.2 91.09,-94 241.85,-44.5 218.01,-229.2 -23.84,-184.8 85.51,-246.2 214.42,-256.9 128.91,-10.8 334.12,308.2 207.34,450.5 -126.79,142.3 12.32,217.1 -31.74,385.2 -44.06,168.1 -119.43,209.8 -119.43,209.8 l 53.44,141.2 c 34.02,183.2 340.32,115.7 358.03,287.2"
         style="fill:#c92828;fill-opacity:1;fill-rule:nonzero;stroke:none"
         id="path310" /><path
         d="m 7545.47,7019.2 c 5.49,-116.4 147.46,-110.4 143.1,6 -5.5,116.4 -147.47,110.4 -143.1,-6"
         style="fill:#f99370;fill-opacity:1;fill-rule:nonzero;stroke:none"
         id="path312" /><path
         d="m 7577.22,6990 c -2.43,0.4 -4.41,2.4 -4.75,4.9 -13.59,75.8 30.25,99.2 74.08,72 6.42,-3.7 0.46,-13.7 -5.89,-9.8 -37.58,23.3 -68.17,2.6 -56.8,-60.7 0.56,-3.7 -2.93,-7.1 -6.64,-6.4"
         style="fill:#c16256;fill-opacity:1;fill-rule:nonzero;stroke:none"
         id="path314" /><path
         d="m 7631.38,6989.1 c -10.03,3 -8.76,45.4 -51.69,57.2 -3.08,0.7 -4.99,3.8 -4.26,6.9 0.73,3.1 3.79,5.1 6.9,4.3 42.88,-10.9 66.61,-68.8 49.05,-68.4"
         style="fill:#c16256;fill-opacity:1;fill-rule:nonzero;stroke:none"
         id="path316" /><path
         d="m 7590.16,6946.9 c 0.65,-36 57.24,-34.2 55.53,1.8 -0.64,36.1 -57.23,34.2 -55.53,-1.8"
         style="fill:#fdffde;fill-opacity:1;fill-rule:nonzero;stroke:none"
         id="path318" /><path
         d="m 7447.47,7925.7 c -23.35,22.6 -67.32,-40.8 -96.38,-46.6 6.02,51.9 27.09,102.4 26.92,102.7 35.31,54.2 73.48,106.4 114.03,156.8 14.31,97.3 -136.88,-98.6 -155.2,-115.1 -0.28,0.2 -0.57,0.3 -0.86,0.5 24.32,63.2 52.15,125.2 85.02,184.4 -7.41,103.1 -124.36,-146.7 -137.5,-168.8 -0.16,0.1 -0.32,0.1 -0.48,0.1 12.81,63.3 33.37,125.1 60.23,183.9 -16.69,103.3 -115.8,-159.8 -121.19,-185.2 -0.25,0 -0.5,-0.1 -0.76,-0.1 2.82,51.2 12.17,102.1 24.04,152 -29.35,93.9 -82.74,-145.8 -85.15,-169.6 -9.89,-15.6 -43.03,-122.4 -49.37,-224.4 -2.36,-37.8 109.23,-116.7 140.85,-97.1 29.65,18.4 106.8,96.1 118.8,108.4 27.29,20.2 90.3,81.3 77,118.1"
         style="fill:#f99370;fill-opacity:1;fill-rule:nonzero;stroke:none"
         id="path320" /><path
         d="m 8701.95,7708 c 28.71,15.3 53.33,-57.8 79.62,-71.5 8.64,51.4 2.44,105.8 2.69,106.1 -18.84,61.9 -41,122.6 -65.9,182.4 13.3,97.4 104.04,-132.9 117.05,-153.8 0.31,0.1 0.63,0.1 0.95,0.2 -5.78,67.5 -15.27,134.8 -30.37,200.8 35.79,97 78.64,-175.5 85.15,-200.3 0.15,-0.1 0.31,-0.1 0.47,-0.1 5.31,64.4 2.74,129.5 -6.7,193.4 44.74,94.5 66.8,-185.7 64.9,-211.6 0.23,-0.1 0.46,-0.2 0.7,-0.3 11.53,50 16.69,101.4 19.18,152.7 54.31,82 38.92,-163.1 34.61,-186.6 5.17,-17.8 11.23,-158.5 -11.03,-258.2 -8.25,-37 -134.39,-66.5 -159.32,-38.9 -23.37,25.9 -82.77,135.7 -90.88,150.9 -20.61,26.9 -64.12,103.2 -41.12,134.8"
         style="fill:#f99370;fill-opacity:1;fill-rule:nonzero;stroke:none"
         id="path322" /><path
         d="m 7944.23,7102.7 c -2.49,0 -4.88,1.3 -6.11,3.7 -1.76,3.3 -0.46,7.5 2.9,9.3 1.82,0.9 44.92,23.2 85.31,20.8 3.8,-0.2 6.68,-3.5 6.46,-7.3 -0.23,-3.8 -3.44,-6.8 -7.28,-6.4 -36.55,2.2 -77.69,-19.1 -78.1,-19.3 -1.02,-0.6 -2.11,-0.8 -3.18,-0.8"
         style="fill:#c16256;fill-opacity:1;fill-rule:nonzero;stroke:none"
         id="path324" /><path
         d="m 8150.09,7102.7 c -2.04,0 -4.06,0.9 -5.41,2.6 -17.51,22.2 -55.13,17.7 -55.51,17.7 -3.72,-0.5 -7.21,2.2 -7.69,5.9 -0.48,3.8 2.17,7.2 5.94,7.7 1.85,0.3 45.7,5.6 68.06,-22.8 2.36,-3 1.85,-7.3 -1.14,-9.6 -1.26,-1 -2.76,-1.5 -4.25,-1.5"
         style="fill:#c16256;fill-opacity:1;fill-rule:nonzero;stroke:none"
         id="path326" /><path
         d="m 7289.38,5535.2 c -66.81,-110.2 -218.17,-379.8 -270.94,-639.7 -18.57,-91.3 -24.91,-204.8 -31.56,-324.9 -13.93,-251.1 -30.39,-548.6 -163.27,-814 -16.05,10.9 -30.72,21.1 -43.91,30.8 125.07,255 141.01,542.8 154.52,786.1 6.75,122.1 13.19,237.5 32.5,332.6 53.09,261.5 198.01,524.9 269.88,644.2 17.73,-5.3 35.36,-10.2 52.78,-15.1"
         style="fill:#7640cc;fill-opacity:1;fill-rule:nonzero;stroke:none"
         id="path328" /><path
         d="m 8251.42,4403.7 c -16.04,-318.8 -79.05,-660.2 -122.64,-866.2 -19.21,-5.3 -38.11,-10.1 -57,-14.5 43.27,200.6 110.4,554.4 126.97,883.3 20.27,403 -124.96,885.3 -178.37,1047.3 20.26,1.2 38.42,2.7 54.25,4.1 57.42,-176.5 197.05,-652.6 176.79,-1054"
         style="fill:#7640cc;fill-opacity:1;fill-rule:nonzero;stroke:none"
         id="path330" /><path
         d="m 8017.43,4434 c -30.19,-406 -114.73,-791 -151.67,-945.5 -18.58,-1.9 -37.05,-3.5 -55.31,-4.5 33.99,139.7 123.28,535.7 154.41,953.9 30.51,409.9 -50.13,836.7 -89.39,1013 18.89,-0.3 36.94,-0.3 54.04,-0.2 40.84,-187 118.21,-610.3 87.92,-1016.7"
         style="fill:#7640cc;fill-opacity:1;fill-rule:nonzero;stroke:none"
         id="path332" /><path
         d="m 7521.15,5484 c -81.27,-163.6 -230.08,-501.2 -286.76,-878.1 l -4.12,-27.5 c -59.95,-398.7 -110.61,-735.9 -177.95,-950.3 -16.57,7.6 -32.51,15.4 -48.02,23.3 65.33,213.2 116.73,554.9 173.83,934.8 l 4.12,27.5 c 56.15,373.4 200.85,708.8 284.86,880.3 18.26,-3.6 36.31,-6.9 54.04,-10"
         style="fill:#7640cc;fill-opacity:1;fill-rule:nonzero;stroke:none"
         id="path334" /><path
         d="m 7673.03,5463.3 c -54.88,-173.9 -191.56,-653.9 -233.78,-1248.8 -22.37,-314.7 -61.11,-536 -99.32,-688 -17.41,4.4 -34.62,9 -51.4,13.8 37.47,148.7 75.99,367 98.16,677.9 41.79,589 175.42,1066.9 233.04,1251.2 18.16,-2.3 35.89,-4.5 53.3,-6.1"
         style="fill:#7640cc;fill-opacity:1;fill-rule:nonzero;stroke:none"
         id="path336" /><path
         d="m 7809.29,5452.9 c -8.02,-258.2 -48.34,-1227 -220.59,-1967.1 -17.94,1.3 -35.57,3 -52.98,5.1 172.99,737.6 213.09,1710.1 220.8,1965.1 18.05,-1.3 35.67,-2.4 52.77,-3.1"
         style="fill:#7640cc;fill-opacity:1;fill-rule:nonzero;stroke:none"
         id="path338" /><path
         d="m 12851.3,11110.3 c 57.3,-100.2 27.7,-233.9 -1.7,-341.3 -44.6,-191.7 -109.5,-469.2 -154.3,-661.4 -191.8,44.7 -470,109.5 -661.4,154.2 -109.3,21 -242.4,54 -306.9,149.7 -124.2,149.1 -77.1,401.5 89.1,496.4 107.2,75.3 250.7,50.6 372,15.4 0,0.7 26.3,111.2 27,115.7 65.3,307.5 505.4,355.3 636.2,71.3"
         style="fill:#eb5648;fill-opacity:1;fill-rule:nonzero;stroke:none"
         id="path340" /><path
         d="m 12851.3,11110.3 c 57.3,-100.2 27.7,-233.9 -1.7,-341.3 -44.6,-191.7 -109.5,-469.2 -154.3,-661.4 l -507.2,815.7 c 0,0.7 26.3,111.2 27,115.7 65.3,307.5 505.4,355.3 636.2,71.3"
         style="fill:#ce3932;fill-opacity:1;fill-rule:nonzero;stroke:none"
         id="path342" /></g></g></svg>
