<?xml version="1.0" encoding="UTF-8" standalone="no"?>
<!-- Created with Inkscape (http://www.inkscape.org/) -->

<svg
   version="1.1"
   id="svg2"
   xml:space="preserve"
   width="4000"
   height="2666.6667"
   viewBox="0 0 4000 2666.6667"
   sodipodi:docname="11115.eps"
   xmlns:inkscape="http://www.inkscape.org/namespaces/inkscape"
   xmlns:sodipodi="http://sodipodi.sourceforge.net/DTD/sodipodi-0.dtd"
   xmlns="http://www.w3.org/2000/svg"
   xmlns:svg="http://www.w3.org/2000/svg"><defs
     id="defs6"><clipPath
       clipPathUnits="userSpaceOnUse"
       id="clipPath244"><path
         d="m 8014.95,9175.7 -284.97,253.4 c -114.35,-54 -263.63,-84.3 -455.59,-84.3 -0.25,0 -0.47,0 -0.71,0 -570.26,0.2 -768.22,228.9 -745.52,600.4 35.28,577 439.81,673.6 811.79,673.6 0.25,0 0.49,0 0.74,0 372.17,-0.1 736.1,-193.2 718.41,-627.5 -7.64,-187.4 -59.98,-350.1 -184.11,-465.4 l 139.96,-350.2"
         id="path242" /></clipPath></defs><sodipodi:namedview
     id="namedview4"
     pagecolor="#ffffff"
     bordercolor="#666666"
     borderopacity="1.0"
     inkscape:pageshadow="2"
     inkscape:pageopacity="0.0"
     inkscape:pagecheckerboard="0" /><g
     id="g8"
     inkscape:groupmode="layer"
     inkscape:label="ink_ext_XXXXXX"
     transform="matrix(1.3333333,0,0,-1.3333333,0,2666.6667)"><g
       id="g10"
       transform="scale(0.1)"><path
         d="M 0,0 H 30000 V 20000 H 0 Z"
         style="fill:#ffffff;fill-opacity:1;fill-rule:nonzero;stroke:none"
         id="path12" /><path
         d="m 26271,2192.3 c -1434.2,0 -22326.91,-5.1 -22338.97,32.2 l -2.05,4.8 c 0,0 -2.04,4.6 -2.04,6.9 -7.99,18.7 -3219.1,5271.2 1772.97,8927.8 1953.25,1430.7 -122.23,2375.2 1430.98,3967.9 1025.58,1051.6 2104.98,830.6 3214.21,609.6 821.5,-163.6 1659.3,-327.2 2503.8,25.9 350.7,146.5 702.6,382.3 1054.9,744.2 198.3,203.4 415.7,381.4 648.3,535.1 35.7,23.6 71.7,46.7 108.1,69.1 139.4,85.9 283.8,163.6 432.6,233.4 99.9,46.9 201.7,90.2 305.5,130 v 0 c 164.6,63.3 333.7,117.8 506.3,163.9 245.2,65.6 497.7,114.3 755.1,147.3 112.3,14.5 225.5,25.8 339.6,34.4 2217.9,165.8 4713.8,-766.6 6001.9,-2129.3 259.3,-274.4 1438.5,-1694.3 508.9,-3645.9 -586.9,-1232.2 1871.8,-2409.1 2745.5,-3816.1 2221.3,-3577.4 34.6,-5994.6 14.4,-6041.2"
         style="fill:#ebf3fa;fill-opacity:1;fill-rule:nonzero;stroke:none"
         id="path14" /><path
         d="m 4846.64,2225.2 h 945.06 c 50.65,43 -35.04,140.6 -124.57,147.1 -38.89,3 -88.06,-5.2 -144.25,-17 -13,172.7 -87.27,949.2 -367.18,918 -314.71,-34.9 0,-342 88.97,-523.7 65.91,-134.7 135.43,-327.8 167.2,-418.9 -25.55,-5.5 -52,-10.9 -79.02,-15.9 -41.72,128.1 -196.93,558.9 -394.31,533.8 -231.74,-29.4 -138.59,-202.1 25.66,-304.7 120.51,-75.4 268.49,-182.5 338.8,-234.3 -59.57,-9.7 -121.75,-16.3 -184.83,-14.8 -161.88,3.8 -240.89,-43.9 -271.53,-69.6"
         style="fill:#a8d29f;fill-opacity:1;fill-rule:nonzero;stroke:none"
         id="path16" /><path
         d="m 13019.8,10662.4 c -487.9,1152.9 -1618.7,2635.9 -1631.7,2987.5 -0.2,3.5 -0.3,7 -0.3,10.4 -2.9,136.2 108.4,225.8 222.9,225.8 58.7,0 118.3,-23.6 163.8,-76.6 1010,-1176.1 1245.3,-3147.1 1245.3,-3147.1"
         style="fill:#dbe7fb;fill-opacity:1;fill-rule:nonzero;stroke:none"
         id="path18" /><path
         d="m 13142.5,10098.2 c -1003.3,1268.1 -2920.4,2726.6 -3057.3,3159.9 -51.4,162.4 -30.8,266.5 14.9,333.1 43.9,63.8 115.5,97.1 188.7,97.1 44.2,0 88.9,-12.1 128.4,-37.2 1718.9,-1089.4 2725.3,-3552.9 2725.3,-3552.9"
         style="fill:#dbe7fb;fill-opacity:1;fill-rule:nonzero;stroke:none"
         id="path20" /><path
         d="m 13393.3,5871.7 c 0,0 144.4,1209.5 764.2,1931.3 27.9,32.6 64.5,47 100.5,47 70.3,0 138.6,-55 136.8,-138.5 0,-2.1 -0.1,-4.3 -0.2,-6.4 -8,-215.8 -701.9,-1125.9 -1001.3,-1833.4"
         style="fill:#dbe7fb;fill-opacity:1;fill-rule:nonzero;stroke:none"
         id="path22" /><path
         d="m 13317.9,5525.4 c 0,0 617.6,1511.8 1672.5,2180.4 24.3,15.4 51.7,22.9 78.9,22.9 44.8,0 88.8,-20.5 115.7,-59.6 28.1,-40.9 40.7,-104.8 9.2,-204.5 -84.1,-265.9 -1260.6,-1161 -1876.3,-1939.2"
         style="fill:#dbe7fb;fill-opacity:1;fill-rule:nonzero;stroke:none"
         id="path24" /><path
         d="m 9150.83,2970 c -36.35,0 -73.36,0.5 -110.86,1.5 -750.67,20.9 -467.72,286.2 -131.61,682.8 336.11,396.7 1169.44,444 1389.94,614.2 146.3,112.8 30.5,182.5 -203.5,182.5 -118.79,0 -268.01,-17.9 -428.86,-57.3 -477.77,-116.9 -640.01,-640.7 -1409.44,-843.9 -53.07,-14 -106.41,-20.6 -159.83,-20.6 -721.12,0 -1447.41,1189.6 -1447.41,1189.6 44.19,-6.2 90.47,-9 138.32,-9 566.56,0 1348.29,402.6 1354.33,579.8 1.82,53.3 -106.47,72.2 -269.01,72.2 -201.51,0 -486.41,-29.1 -748.05,-58.3 -261.7,-29.1 -500.15,-58.3 -608.8,-58.3 -11.56,0 -21.66,0.3 -30.16,1 -232.53,19.1 -696.97,401.4 -602.19,1334.6 88.91,875.5 1461.58,902.5 1631.15,902.5 11.19,0 17.17,-0.1 17.17,-0.1 0,0 1270.43,-1383 1581.22,-1383 1.32,0 2.63,0 3.91,0.1 303.92,11.8 -862.55,1406.4 -862.55,1406.4 79.25,21 178.35,30.1 290.23,30.1 689.62,0 1864.37,-344.3 1864.37,-344.3 0,0 198,-1756 479.2,-1755.9 6.6,0 13.2,0.9 19.9,2.9 291.6,86.3 -266.8,1619.2 -266.8,1619.2 586,-75.5 1214.4,-641 1214.4,-641 826.2,-953.6 -440.9,-1965.3 -440.9,-1965.3 0,0 -308.8,-1482.5 -2264.17,-1482.4"
         style="fill:#d9e5fc;fill-opacity:1;fill-rule:nonzero;stroke:none"
         id="path26" /><path
         d="m 20784.6,6602.5 c -175.6,0 -299.8,64.9 -349.7,130.1 -98.2,128 -474.5,1023.5 -604.7,1023.5 -5.3,0 -10.3,-1.5 -14.7,-4.6 -113.8,-78.9 -32.2,-813.1 236.5,-1125.7 0,0 -10.1,-0.3 -28.5,-0.3 -179,0 -1145,23.1 -1305.5,517 -177,544.8 76.7,847.2 -38.8,1181.9 -83.7,242.4 -206.4,413.6 -274.1,413.6 -25.7,0 -43.6,-24.8 -48.2,-79.8 -17,-199.7 279.3,-722.5 170.3,-1080.5 -68.7,-225.5 -112,-416.5 -212.2,-416.5 -58.9,0 -137.4,66.1 -252.3,229.9 -310.3,442.7 -626.1,1341.7 -328,1678.1 13,14.7 25.4,28.7 37.3,42.1 -26.3,-24 -37.3,-42.1 -37.3,-42.1 -91.1,66.9 -398.6,93.3 -630.3,103.6 h -0.4 c -6.3,-0.2 -13,-0.2 -20.2,-0.2 -36.4,0 -84.4,1.7 -146.6,5.6 h -0.2 -0.1 c -32.7,0.7 -59.4,1 -78.2,1.1 h -1.3 -0.5 c -29.8,-0.8 -60.2,-3.1 -91.1,-6.6 l -44.2,101.9 c 23.4,0.8 45.8,1.1 66.9,1.1 139.9,0 226.9,-15.2 226.9,-15.2 v 0 c 69,-5.9 135.5,-8.5 199.2,-8.5 490.7,0.1 818.2,153.6 818.2,153.6 0,0 106,1042.9 882.5,1042.9 42.8,0 87.8,-3.2 134.7,-9.9 0,0 587.3,-159.8 861.4,-484.9 0,0 -1145.3,-259.7 -1083.8,-469.9 9.3,-31.6 44.3,-45.1 97.1,-45.1 297.4,0 1158.2,426.6 1158.2,426.6 0,0 900.1,-778.9 1030.1,-1181.2 0,0 -519.2,64.8 -872.9,64.8 -205.6,0 -355.3,-21.9 -314.3,-91.2 111.3,-188.5 1454.8,-420 1454.8,-420 0,0 624.3,-928 96.6,-1349.2 -269.7,-215.2 -509.2,-286 -692.6,-286"
         style="fill:#ccdbfd;fill-opacity:1;fill-rule:nonzero;stroke:none"
         id="path28" /><path
         d="m 17061.5,10835.3 c 48.8,138.1 98.7,220.1 98.7,220.1 v 0 c 218.5,442.1 194.1,820.1 194.1,820.1 0,0 -851,438 -483.8,1085.9 0,0 297.9,400.4 628.2,512.3 0,0 -144.8,-952.1 34,-968.1 1.3,-0.1 2.6,-0.2 3.9,-0.2 173.5,0.1 81,1072.7 81,1072.7 0,0 825.1,433.2 1185.7,433.2 8.5,0 16.7,-0.3 24.6,-0.7 0,0 -497.6,-914.9 -343,-914.9 2.3,0 4.8,0.2 7.4,0.7 177.3,28.5 756.5,984.6 756.5,984.6 0,0 164.6,36.5 365.6,36.5 267.7,0 599.9,-64.7 693.2,-366.9 163.4,-529.1 -60.8,-804.3 -193.2,-842.4 -132.4,-38.1 -989.6,-57 -963.4,-167.5 19.9,-83.8 361.3,-194.9 664.4,-194.9 96.3,0 188.8,11.3 265.8,38.1 0,0 -315.2,-864.1 -772.4,-864.1 -7.2,0 -14.4,0.3 -21.7,0.7 -468.9,28.1 -623.7,312.3 -913.8,324.4 -18.7,0.8 -37.1,1.2 -55,1.2 -260.5,0 -434.3,-79.1 -296.4,-147.2 147.4,-72.8 635.2,-3.3 875.8,-193.7 240.6,-190.5 434.1,-306.2 3.3,-410.5 -140.5,-34 -318.2,-53.9 -499.7,-53.9 -375.2,0 -766.7,85.1 -879.5,306.3 v 0 c -78.4,-49.5 -190.6,-276.3 -268,-450.1 v -0.3 c -10.9,-29.4 -28.3,-70.3 -54.2,-125.7 v -0.1 l -0.1,-0.1 c -10.3,-24.8 -18.5,-45.1 -24.3,-59.4 l -0.3,-1 -0.2,-0.4 c -8.3,-22.9 -15.6,-46.8 -22.2,-71.5 l -91,-3.2 m 439.3,752.9 c 10.4,-27.3 21,-41.1 21,-41.1 -7.3,14.3 -14.3,28 -21,41.1"
         style="fill:#ccdbfd;fill-opacity:1;fill-rule:nonzero;stroke:none"
         id="path30" /><path
         d="m 13580.7,15009.8 c 0,0 253.4,476.9 859.3,423.9 0,0 879.8,795 1817.9,106 0,0 997.2,170.7 1735.7,-147.8 492.4,-212.4 655.1,-435.1 655.1,-435.1 l -5068,53"
         style="fill:#f8fcff;fill-opacity:1;fill-rule:nonzero;stroke:none"
         id="path32" /><path
         d="m 17507.1,15802 c 0,0 179.7,361.3 609.4,321.2 0,0 623.9,602.2 1289.1,80.2 0,0 707.2,129.4 1230.9,-111.9 349.2,-160.9 464.5,-329.6 464.5,-329.6 l -3593.9,40.1"
         style="fill:#f8fcff;fill-opacity:1;fill-rule:nonzero;stroke:none"
         id="path34" /><path
         d="m 7485.54,11257.8 c 0,0 162.03,361.3 549.47,321.1 0,0 562.5,602.2 1162.34,80.3 0,0 637.63,129.3 1109.85,-111.9 314.8,-160.9 418.8,-329.7 418.8,-329.7 l -3240.46,40.2"
         style="fill:#f8fcff;fill-opacity:1;fill-rule:nonzero;stroke:none"
         id="path36" /><path
         d="m 15681.7,6331.3 464.4,2694 H 13607 l -464.5,-2694 z m -4459,-1610.2 H 9829.22 v 1610.2 h 1672.08 l 449,2694 h -1548.2 v 1610.2 H 12229 l 418.1,2430.7 h 1656.6 l -418,-2430.7 h 2539.1 l 402.6,2430.7 H 18484 l -418,-2430.7 h 1377.9 V 9025.3 h -1656.6 l -449,-2694 h 1548.3 V 4721.1 h -1827 l -433.5,-2492.7 h -1656.6 l 433.5,2492.7 h -2539.2 l -418,-2492.7 h -1656.7 l 433.6,2492.7"
         style="fill:#f77d48;fill-opacity:1;fill-rule:nonzero;stroke:none"
         id="path38" /><path
         d="m 7914.39,7850 c -0.01,5.1 73.68,157.4 50.24,169.1 -23.44,11.7 -65.43,10 -70.31,-16.7 -4.89,-26.7 20.07,-152.4 20.07,-152.4"
         style="fill:#ffb27d;fill-opacity:1;fill-rule:nonzero;stroke:none"
         id="path40" /><path
         d="m 7942.21,7759.1 c 0.05,15 -17.26,243.1 -55.73,288.5 -38.47,45.4 -117.03,109.9 -141.74,108 -24.72,-2 -121.34,-130.4 -92.29,-228.8 29.05,-98.4 151.65,-231.5 151.65,-231.5 l 138.11,63.8"
         style="fill:#ffb27d;fill-opacity:1;fill-rule:nonzero;stroke:none"
         id="path42" /><path
         d="m 8088.86,8035.5 -223.99,-67.2 c -7.43,-2.2 -15.26,2 -17.49,9.5 l -128,427.1 c -2.24,7.4 1.99,15.2 9.42,17.5 l 223.98,67.1 c 7.43,2.2 15.27,-2 17.49,-9.4 L 8098.29,8053 c 2.22,-7.5 -2,-15.3 -9.43,-17.5"
         style="fill:#f1a34f;fill-opacity:1;fill-rule:nonzero;stroke:none"
         id="path44" /><path
         d="m 8030.66,8018 -203.17,-60.9 c -13.18,-3.9 -27.07,3.6 -31.02,16.7 l -121.77,406.3 c -3.95,13.2 3.53,27.1 16.72,31.1 l 203.16,60.9 c 13.18,3.9 27.08,-3.6 31.03,-16.8 l 121.77,-406.2 c 3.95,-13.2 -3.54,-27.1 -16.72,-31.1"
         style="fill:#d86713;fill-opacity:1;fill-rule:nonzero;stroke:none"
         id="path46" /><path
         d="m 7721.63,8139 c 0,0 93.27,143.5 116.06,135.5 32.53,-11.4 -84.56,-193.5 -84.56,-193.5 0,0 86.77,136.1 100.31,125.8 30.89,-23.3 -18.27,-108.8 -67.01,-174.3 0,0 87.25,79.9 90.09,65.5 9.96,-50.4 -95.79,-172.6 -95.79,-172.6 l -59.1,135 v 78.6"
         style="fill:#ffb27d;fill-opacity:1;fill-rule:nonzero;stroke:none"
         id="path48" /><path
         d="m 7651.66,8005.7 c 4.51,17.6 27.28,360.3 37.03,327.8 9.74,-32.5 32.94,-212.2 32.94,-212.2 l -69.97,-115.6"
         style="fill:#ffb27d;fill-opacity:1;fill-rule:nonzero;stroke:none"
         id="path50" /><path
         d="m 9140.2,8100.1 c 0,0 -9.78,-372.6 -117.24,-673.4 -84.88,-237.4 -230.72,-430.1 -480.89,-358.9 -25.59,7.2 -50.35,15.1 -74.38,23.5 l -0.31,0.1 c -508.25,177 -672.71,582.3 -672.71,582.3 37.86,62.4 147.5,85.4 147.5,85.4 102.36,-5.5 552.15,-196.5 580.86,-202.3 104.02,-20.9 188.07,550.8 255.69,748.8 67.61,198.1 344.31,286.7 344.31,286.7 l 17.17,-492.2"
         style="fill:#f99746;fill-opacity:1;fill-rule:nonzero;stroke:none"
         id="path52" /><path
         d="m 9032.74,7695.2 -9.78,-268.5 c -84.88,-237.4 -230.72,-430.1 -480.89,-358.9 -25.59,7.2 -50.35,15.1 -74.38,23.5 8.01,-1.1 161.13,-21.8 225.21,42.3 65.85,66 58.98,284.4 180.27,430 121.39,145.7 159.57,131.6 159.57,131.6"
         style="fill:#ed7d2b;fill-opacity:1;fill-rule:nonzero;stroke:none"
         id="path54" /><path
         d="m 9046.76,2785 c 0,0 125.09,-114.2 100.68,-195.3 -24.41,-81.1 -137.29,-135.2 -152.55,-234.3 -15.25,-99.2 -76.27,-153.2 -131.19,-153.2 -54.92,0 -261.82,0 -261.82,0 0,0 -40.42,69.7 57.21,90.8 97.63,21 134.44,137.5 128.34,245.6 -6.11,108.2 9.15,252.4 9.15,252.4 l 207.46,48 42.72,-54"
         style="fill:#0e2949;fill-opacity:1;fill-rule:nonzero;stroke:none"
         id="path56" /><path
         d="m 7668.56,2222.9 h 770.89 c 30.22,0 55.07,24 55.89,54.2 1.22,45.2 -2.53,110.9 -27.57,166.3 -41.16,91.2 -67.15,107.2 106.65,372.7 -52.26,-53.9 -193.17,-29.2 -312.07,-13.2 -14.57,-23.7 -235.16,-364.5 -283.82,-399.4 -53.75,-38.7 -293.42,-24.9 -309.97,-180.6"
         style="fill:#0e2949;fill-opacity:1;fill-rule:nonzero;stroke:none"
         id="path58" /><path
         d="m 8869.74,6497.9 c 0,0 -558.93,-1054.7 -710.82,-1635.4 -117.89,-450.8 601.59,-2194.9 601.59,-2194.9 0,0 58.79,3.9 154.73,41.6 94.2,37 130.06,136.4 130.06,136.4 0,0 -42.66,1247 -188.29,1850.3 -32.69,135.5 158.36,572.3 480.83,811.5 322.46,239.3 456.74,1009 264.77,1061.1 -191.96,52 -732.87,-70.6 -732.87,-70.6"
         style="fill:#707fe5;fill-opacity:1;fill-rule:nonzero;stroke:none"
         id="path60" /><path
         d="m 9348.24,6797.3 c 0,0 -587.58,-2153.9 -765.83,-2637.6 -178.25,-483.7 -460.92,-1510.3 -460.92,-1510.3 0,0 178.72,-83.9 407.57,-44.2 0,0 859.18,1258.7 896.58,1815 17.29,257.1 881.56,1276.5 785.16,1941.2 l -862.56,435.9"
         style="fill:#8c9df4;fill-opacity:1;fill-rule:nonzero;stroke:none"
         id="path62" /><path
         d="m 10209.4,6125.2 c 0,0 -125,-63 -346.04,-81.5 h -0.21 c -253.09,-21.3 -632.14,16 -1093.79,273 0,0 -128.78,106.1 29.43,557.4 119.74,341.6 178.09,1061.8 324.24,1718.2 0,0 474.13,148.8 854.54,20.2 290.63,-98.3 261.73,-544.4 315.43,-1008.8 5,-43.4 10.7,-86.9 17.4,-130.3 79.4,-508.4 -101,-1348.2 -101,-1348.2"
         style="fill:#f99746;fill-opacity:1;fill-rule:nonzero;stroke:none"
         id="path64" /><path
         d="m 8955.87,9564 c 0,0 323.62,526.8 574.22,255.7 0,0 163.84,-41.8 257.69,-296.9 95.75,-260.3 -53.37,-490.1 -152.96,-453 -63.86,23.9 -93.75,-86.2 -93.75,-86.2 l -585.2,580.4"
         style="fill:#233862;fill-opacity:1;fill-rule:nonzero;stroke:none"
         id="path66" /><path
         d="m 9480.46,9861.2 c 0,0 22.28,218.1 340.95,196.9 0,0 -150.7,-2.7 -183.05,-65.5 0,0 109.57,70.6 189.51,36.2 79.94,-34.3 113.81,-183.9 109.48,-231.5 -4.32,-47.7 -65.7,-196.4 -119.43,-204.1 -53.72,-7.8 -124.11,30.2 -124.11,30.2 l -213.35,237.8"
         style="fill:#233862;fill-opacity:1;fill-rule:nonzero;stroke:none"
         id="path68" /><path
         d="m 9641.01,8625.8 c -29.92,79.8 -74.5,163.6 -110.29,418.3 l -19.14,-6.7 -321.67,-113.3 c 0,0 22.55,-103.1 36.93,-201.2 5.89,-40.2 10.09,-111.8 12.83,-174.3 2.81,-64 65.69,-70 129.61,-67 170.09,7.8 263.82,71.3 271.73,144.2"
         style="fill:#ffb27d;fill-opacity:1;fill-rule:nonzero;stroke:none"
         id="path70" /><path
         d="m 9189.91,8924.1 c 0,0 22.55,-103.1 36.93,-201.2 184.54,31.9 258.12,215 284.74,314.5 l -321.67,-113.3"
         style="fill:#e8945b;fill-opacity:1;fill-rule:nonzero;stroke:none"
         id="path72" /><path
         d="m 9540.59,9078.4 c 0,0 74.99,167.4 79.38,302 3.14,96 -94.61,436.3 -436.29,336 0,0 -99.9,-24.5 -185.87,-102.6 -68.37,-62.1 -161.77,-188.3 4.13,-473.6 l 46.5,-97.8 492.15,36"
         style="fill:#233862;fill-opacity:1;fill-rule:nonzero;stroke:none"
         id="path74" /><path
         d="m 9141.43,8822.2 c 0,0 439.44,56 400.38,329.1 -39.07,273.2 -8.65,464.3 -290.88,440.1 -282.23,-24.1 -321.71,-136.1 -330.85,-230.5 -9.13,-94.3 106.03,-546.2 221.35,-538.7"
         style="fill:#ffb27d;fill-opacity:1;fill-rule:nonzero;stroke:none"
         id="path76" /><path
         d="m 9050.29,9569.3 c 0,0 166.22,-303 357.26,-323.9 191.04,-20.8 263.84,40.1 263.84,40.1 0,0 -157.48,91.9 -215.05,283.6 0,0 -337.48,165.8 -406.05,0.2"
         style="fill:#233862;fill-opacity:1;fill-rule:nonzero;stroke:none"
         id="path78" /><path
         d="m 9083.79,9547.6 c 0,0 -79.33,-84.4 -91.16,-157.1 -11.83,-72.7 -1.02,-217.3 -43.45,-218.4 0,0 -121.83,204.7 -37.95,342.5 88.94,146.2 172.56,33 172.56,33"
         style="fill:#233862;fill-opacity:1;fill-rule:nonzero;stroke:none"
         id="path80" /><path
         d="m 9068.7,9534.4 c 0,0 133.88,-323.2 381.81,-397.1 0,0 -262.15,172.6 -313.81,391.2 -51.66,218.7 -68,5.9 -68,5.9"
         style="fill:#233862;fill-opacity:1;fill-rule:nonzero;stroke:none"
         id="path82" /><path
         d="m 10209.4,6125.2 c 0,0 -125,-63 -346.04,-81.5 h -0.21 c 0,0 -181.63,227.7 21.01,482.8 202.64,255.2 -15.81,726 140.24,982.1 108.6,178.2 214.3,136.7 268.6,95.1 5,-43.4 10.7,-86.9 17.4,-130.3 79.4,-508.4 -101,-1348.2 -101,-1348.2"
         style="fill:#ed7d2b;fill-opacity:1;fill-rule:nonzero;stroke:none"
         id="path84" /><path
         d="m 11006.7,6503.7 c 0,0 26.9,-62.8 64.5,-67 61.5,-6.8 178.5,-58.3 196.9,-69.2 49.8,-29.6 46.4,-161.8 -3.4,-174.3 -49.8,-12.4 -74.7,98.6 -230.3,128.3 -52.8,10.1 -129.7,-26.4 -160.8,100.1 l 133.1,82.1"
         style="fill:#ffb27d;fill-opacity:1;fill-rule:nonzero;stroke:none"
         id="path86" /><path
         d="m 9977.57,8612.5 c 452.53,-166.4 469.23,-968 670.93,-1321.1 208.1,-364.1 410.7,-843.3 410.7,-843.3 0,0 -3.7,-14.3 -81.3,-36.5 -54.6,-15.7 -111.6,-9.1 -111.6,-9.1 0,0 -427.5,386.8 -543.7,539.3 -116.1,152.6 -390.01,860.4 -390.01,860.4 0,0 -134.65,876.4 44.98,810.3"
         style="fill:#f99746;fill-opacity:1;fill-rule:nonzero;stroke:none"
         id="path88" /><path
         d="m 10884.8,6390.2 c 0,0 11,-53.8 77.7,-97.4 66.7,-43.6 120.2,-87.1 126.7,-60.2 6.4,27 -37.2,56.1 -47.5,105.9 -10.4,49.8 -156.9,51.7 -156.9,51.7"
         style="fill:#ffb27d;fill-opacity:1;fill-rule:nonzero;stroke:none"
         id="path90" /><path
         d="m 17981.8,6933.9 c -207.8,44.4 -424.6,-18.5 -578.4,-165.1 -67.8,-64.7 -142.2,-145.5 -210.6,-241 -169.5,-236.6 155,-470.9 111.9,-551 -43.2,-80.2 -143.2,-143.5 -99.4,-310.9 43.7,-167.4 332.3,-384.7 426.4,-394.3 953.6,-98 1367.4,427.7 1048.6,711.1 -318.7,283.4 -188.7,694.5 -447.4,854.2 -80,49.3 -167.8,79.2 -251.1,97"
         style="fill:#162c51;fill-opacity:1;fill-rule:nonzero;stroke:none"
         id="path92" /><path
         d="m 17483.5,5438.4 c 0,0 -870.2,-421.5 -1033.2,-414.4 -163,7.1 -1181.9,365.9 -1181.9,365.9 l 25.5,-172.8 c 0,0 775.2,-445.8 1046.2,-471.1 266.8,-24.9 1179.1,239.4 1267.2,295.3 88,55.8 132.1,340.6 -123.8,397.1"
         style="fill:#ed985f;fill-opacity:1;fill-rule:nonzero;stroke:none"
         id="path94" /><path
         d="m 17387.7,5040.8 c 78.8,-54.7 177.7,-99.9 301.9,-128.5 465.3,-107.5 643.6,285.8 710.6,555.8 -63.4,36.3 -123.1,44.3 -157.6,48.4 -33.7,4 -69,6.6 -98.3,8.1 -52.3,40 -130.1,203.8 -147.4,458.1 l -21.9,-5.9 -366.7,-100.3 c 0,0 16.8,-116.6 25,-226.8 6.4,-86.2 7.4,-168.6 -8.9,-188.8 -28.7,-6.2 -45.8,-10.3 -45.8,-10.3 l -0.2,-0.3 c -4.9,-8.1 -111.3,-183.1 -190.7,-409.5"
         style="fill:#ffb27d;fill-opacity:1;fill-rule:nonzero;stroke:none"
         id="path96" /><path
         d="m 17608.3,5876.4 c 0,0 16.8,-116.5 25,-226.8 207.8,20.8 304.2,218.7 341.7,327.2 l -366.7,-100.4"
         style="fill:#ed985f;fill-opacity:1;fill-rule:nonzero;stroke:none"
         id="path98" /><path
         d="m 17546.2,5767 c 0,0 493.2,27.2 471.5,334 -21.6,306.9 27.4,517.1 -288.4,512.7 -315.8,-4.4 -368.6,-125.8 -386.3,-230 -17.7,-104.2 74.4,-615.9 203.2,-616.7"
         style="fill:#ffb27d;fill-opacity:1;fill-rule:nonzero;stroke:none"
         id="path100" /><path
         d="m 17345.4,6555.4 c 69.5,97.7 128.5,81.6 162.8,56.1 258.6,167.4 447.8,-39 447.8,-39 48.7,-217.8 216.5,-332.6 216.5,-332.6 0,0 -87.4,-69.9 -296.6,-23.5 -267.6,59.3 -359.5,291.4 -372,327.1 -28.2,-29.2 -64.5,-47.7 -92.4,-111 -33.1,-75.1 -53.9,-118.7 -54.4,-242.1 0,0 -116,218.3 -11.7,365"
         style="fill:#162c51;fill-opacity:1;fill-rule:nonzero;stroke:none"
         id="path102" /><path
         d="m 18540.7,4038.1 c 44.5,227.6 189.7,1137.3 44.5,1430 -52.1,105.1 -256.8,114.6 -481.3,105.4 -69.9,-45.1 -336.1,-215.6 -445.4,-194.3 -1.2,0.2 -3.3,0.7 -6.2,1.4 -51.5,12.9 -70.9,49.1 -27.9,80.3 0,0.1 -98.6,-7 -236.7,-33 -78,-14.7 -292.2,-146.1 -292.2,-146.1 0,0 97.1,-151.1 253.3,-217.2 -26.5,-237.6 13,-342.5 259.5,-891.3 208.3,-464 -28.1,-881.7 -28.1,-881.7 0,0 1226.3,-986 1233.1,-484 5.2,378 -329.5,939.5 -272.6,1230.5"
         style="fill:#8ca0f4;fill-opacity:1;fill-rule:nonzero;stroke:none"
         id="path104" /><path
         d="m 17519.4,2219.5 c -66.7,7.5 -126.7,44 -164,99.8 -5.9,8.9 -12.3,18.4 -19,28.6 -139.6,211.3 -193.9,858.4 -507.9,1547.9 -76.4,167.8 -351,198 -425.8,387.7 0,0 -184.3,615 352.6,633.2 536.9,18.1 1437.9,-1711.2 1452.1,-1892.6 13.8,-175.7 355,-922.3 -688,-804.6"
         style="fill:#162c4f;fill-opacity:1;fill-rule:nonzero;stroke:none"
         id="path106" /><path
         d="m 15385.5,2223 h 764.2 c 0,0 28.5,125.2 -21.6,210.3 -44.4,75.4 -27.4,118.3 5.5,180.6 -34.7,-14.5 -79.4,-27.8 -128.7,-24.9 -38.1,2.3 -78.4,20 -113.7,41.1 -32.9,-38.5 -173.7,-202.4 -217.7,-234.9 -49.9,-36.8 -272.6,-23.7 -288,-172.2"
         style="fill:#aa3c3c;fill-opacity:1;fill-rule:nonzero;stroke:none"
         id="path108" /><path
         d="m 16385.2,4738.9 c -46,-345 -225.7,-1433.8 -542.7,-1965 -102.1,-171.2 257.5,-267.3 259.5,-266.8 48.2,12.7 128.6,89.6 165.6,123 257.3,231.9 779.7,888.6 779.7,1415.1 0,256.7 4.5,747 -182.1,871.6 -115,76.7 -461.7,-40.9 -480,-177.9"
         style="fill:#162c4f;fill-opacity:1;fill-rule:nonzero;stroke:none"
         id="path110" /><path
         d="m 17892.6,2218.7 c 0,0 -38.8,58 -63.3,144.3 -41.1,144.1 -55.7,249 -134.6,473.6 -82.9,235.7 -181.2,525.7 -304.1,827.4 -37.9,93.2 -78.2,187.4 -121,281.6 -76.5,167.8 -286.9,144.6 -361.8,334.4 0,0 -292,657.7 244.9,675.9 536.9,18.1 1557,-1759.6 1615.7,-1931.8 64.1,-188.4 294.8,-986 -875.8,-805.4"
         style="fill:#2b478b;fill-opacity:1;fill-rule:nonzero;stroke:none"
         id="path112" /><path
         d="m 15946.5,2223 h 764.1 c 0,0 28.6,125.2 -21.6,210.3 -44.4,75.4 -27.4,118.3 5.5,180.6 -34.6,-14.5 -79.4,-27.8 -128.7,-24.9 -38.1,2.3 -78.3,20 -113.6,41.1 -32.9,-38.5 -173.8,-202.4 -217.8,-234.9 -49.9,-36.8 -272.6,-23.7 -287.9,-172.2"
         style="fill:#c1514c;fill-opacity:1;fill-rule:nonzero;stroke:none"
         id="path114" /><path
         d="m 17694.7,2836.6 c -82.9,235.7 -181.2,525.7 -304.1,827.4 32.1,228.6 101.3,428.6 217.7,509.3 0,0 282.4,-874.9 86.4,-1336.7"
         style="fill:#233862;fill-opacity:1;fill-rule:nonzero;stroke:none"
         id="path116" /><path
         d="m 16831.3,4763.3 c -46,-344.9 -110.8,-1458.2 -427.8,-1989.4 -102.2,-171.2 257.5,-267.3 259.4,-266.8 48.2,12.7 128.6,89.6 165.6,123 257.4,231.9 779.8,888.6 779.8,1415.1 0,256.7 -301.3,726.4 -488,851 -114.9,76.7 -270.7,4.1 -289,-132.9"
         style="fill:#2b478b;fill-opacity:1;fill-rule:nonzero;stroke:none"
         id="path118" /><path
         d="m 15177.1,5834.4 782.6,83.1 c 22.8,2.5 44.4,-10.8 52.6,-32.2 l 280,-735.7 c 12.2,-32.3 -10.7,-67.1 -45.2,-68.5 l -776.5,-31.3 c -21.1,-0.9 -40.5,11.5 -48.7,31 l -286,683.9 c -13.1,31.2 7.6,66.2 41.2,69.7"
         style="fill:#233862;fill-opacity:1;fill-rule:nonzero;stroke:none"
         id="path120" /><path
         d="m 15109.2,5827.3 782.5,83.1 c 22.8,2.5 44.4,-10.8 52.6,-32.2 l 280,-735.8 c 12.3,-32.2 -10.7,-67 -45.2,-68.4 l -776.5,-31.3 c -21.1,-0.9 -40.5,11.5 -48.7,31 l -286,683.9 c -13,31.2 7.6,66.1 41.3,69.7"
         style="fill:#2b478b;fill-opacity:1;fill-rule:nonzero;stroke:none"
         id="path122" /><path
         d="m 15542.9,5483.8 c -9.5,26.2 4,47.5 30.3,47.5 26.2,0 55.3,-21.3 64.8,-47.5 9.6,-26.3 -3.9,-47.6 -30.2,-47.6 -26.3,0 -55.3,21.3 -64.9,47.6"
         style="fill:#ebf3fa;fill-opacity:1;fill-rule:nonzero;stroke:none"
         id="path124" /><path
         d="m 15132.6,5757.8 c -4.7,12.9 1.9,23.4 14.8,23.4 12.9,0 27.2,-10.5 31.9,-23.4 4.7,-12.9 -2,-23.4 -14.9,-23.4 -12.9,0 -27.1,10.5 -31.8,23.4"
         style="fill:#ebf3fa;fill-opacity:1;fill-rule:nonzero;stroke:none"
         id="path126" /><path
         d="m 18400.2,5468.1 c 0,0 -1084.6,-399.4 -1247.5,-391.3 -105.4,5.3 -980.9,313.1 -980.9,313.1 l -78.6,-148.7 c 0,0 852.2,-547.7 1086.4,-545 462.6,5.3 1243,289.2 1331.1,345.1 88.1,55.8 145.5,370.3 -110.5,426.8"
         style="fill:#ffb27d;fill-opacity:1;fill-rule:nonzero;stroke:none"
         id="path128" /><path
         d="m 16171.8,5389.9 c 0,0 -78.6,120.9 -156.9,124.5 -78.2,3.5 -213.4,-53.4 -259.7,-62.3 -46.2,-8.9 -177.8,-51.5 -138.7,-115.6 39.1,-64 220.6,-78.2 298.8,-64 78.3,14.2 177.9,-31.3 177.9,-31.3 l 78.6,148.7"
         style="fill:#ffb27d;fill-opacity:1;fill-rule:nonzero;stroke:none"
         id="path130" /><path
         d="m 16036.2,5510.7 c 0,0 -124.4,57.1 -160,67.7 -35.6,10.7 -28.5,-0.1 -17.8,-33.8 10.7,-33.8 74.7,-65.9 74.7,-76.5 0,-10.6 103.1,42.6 103.1,42.6"
         style="fill:#ffb27d;fill-opacity:1;fill-rule:nonzero;stroke:none"
         id="path132" /><path
         d="m 15189.8,5453.9 c 0,0 49.6,163.6 104.1,112.2 56.8,-53.5 22.4,-107 15.4,-175.2 -13.3,-130.4 -39.7,-124.8 -56.3,-118.9 -16.7,5.9 -81.7,116.3 -63.2,181.9"
         style="fill:#ffb27d;fill-opacity:1;fill-rule:nonzero;stroke:none"
         id="path134" /><path
         d="m 15186.8,5429 c 0,0 -25.1,-139.2 107.1,-211.9 l -39.1,95.8 -68,116.1"
         style="fill:#ffb27d;fill-opacity:1;fill-rule:nonzero;stroke:none"
         id="path136" /><path
         d="m 17453.9,5943.4 c 0,0 46.6,18.5 177.8,7.8 0,0 -7,-51.1 -103.7,-56.2 -54.8,-2.9 -74.1,48.4 -74.1,48.4"
         style="fill:#ffffff;fill-opacity:1;fill-rule:nonzero;stroke:none"
         id="path138" /><path
         d="m 17841.4,5271.1 c 0,0 97,-307.1 430.2,-377 0,0 550.1,169.5 276.2,544.3 0,0 -270.8,201.3 -706.4,-167.3"
         style="fill:#8ca0f4;fill-opacity:1;fill-rule:nonzero;stroke:none"
         id="path140" /><path
         d="m 15186.8,5409.3 c 0,0 -22.9,76.7 -24.2,89.9 -1.3,13.3 0.3,20 12.1,10.7 11.8,-9.3 29.8,-33.9 24.4,-57.2 -5.3,-23.2 -12.3,-43.4 -12.3,-43.4"
         style="fill:#ffb27d;fill-opacity:1;fill-rule:nonzero;stroke:none"
         id="path142" /><path
         d="m 14862.6,9178.8 c -17.9,-20.6 -20.2,-43.6 -11.3,-68.2 l 0.1,-0.3 c 16.5,-45.4 70.8,-96.2 133.9,-146.8 8,-6.6 15.2,-12.5 21.5,-18 1.6,-1.4 3.2,-2.8 4.8,-4.3 1.3,-1.1 2.5,-2.3 3.7,-3.3 58.8,-54.3 36.7,-66.7 142.4,-176.7 120.5,-125.4 203.5,-127.7 227.1,-116.3 20,9.8 -20.6,76.3 -65.6,151 -2.1,3.6 -4.3,7.3 -6.5,10.9 -6,10 -11.9,20.1 -17.9,30 -52.7,90 -39.1,132.2 -26.7,266.1 10.2,108.8 169.3,607.9 169.3,607.9 l -231,39.7 c 0,0 -69.5,-397.3 -146.1,-458.5 -41,-32.7 -86.9,-33.1 -126.3,-57.3 -2.8,-1.6 -5.5,-3.4 -8.2,-5.1 -22.4,-14.9 -45.2,-30.2 -63.2,-50.8"
         style="fill:#ffb27d;fill-opacity:1;fill-rule:nonzero;stroke:none"
         id="path144" /><path
         d="m 14862.6,9178.8 c -17.9,-20.6 -20.2,-43.6 -11.3,-68.2 l 0.1,-0.3 c 20.2,-45.4 73.1,-95.9 134.1,-146.4 8,-6.6 15,-12.7 21.3,-18.4 1.6,-1.4 3.2,-2.8 4.8,-4.3 1.3,-1.1 2.5,-2.3 3.7,-3.3 58.8,-54.3 36.7,-66.7 142.4,-176.7 120.5,-125.4 203.5,-127.7 227.1,-116.3 20,9.8 -20.6,76.3 -65.6,151 -23.4,8.6 -132.4,52.9 -214.8,158.3 -69.9,89.3 -117.4,203 -165,272.8 -5.2,1 -8.3,1.6 -13.6,2.6 -22.4,-14.9 -45.2,-30.2 -63.2,-50.8"
         style="fill:#233862;fill-opacity:1;fill-rule:nonzero;stroke:none"
         id="path146" /><path
         d="m 16725,9323 c 14.3,-71.3 115.9,-59.4 229.4,-31.6 113.6,27.7 86.6,-5.3 248.2,12.6 161.6,17.9 210.5,78.2 215.4,102.2 4.5,21.3 -75.4,28.8 -161,38.7 -10.8,1.2 -21.6,2.5 -32.4,3.9 -96.7,12.1 -167.5,74.5 -255.4,125.7 -83.2,48.6 -207.3,246.3 -207.3,246.3 l -221.6,-17.5 c 0,0 116.3,-176.6 161.2,-253.4 26.5,-45.2 25.1,-104.9 21.8,-151.1 -1.7,-25 -3.3,-50.7 1.7,-75.8"
         style="fill:#ffb27d;fill-opacity:1;fill-rule:nonzero;stroke:none"
         id="path148" /><path
         d="m 16954.4,9291.4 c 113.6,27.7 86.6,-5.3 248.2,12.6 161.6,17.9 210.5,78.2 215.4,102.2 4.5,21.3 -75.4,28.8 -161,38.7 l -0.8,-1.6 c 0,0 -96.9,-68.8 -231.5,-72 -109.6,-2.6 -225.7,28.8 -301.4,27.5 -1.7,-25 -3.3,-50.7 1.7,-75.8 14.3,-71.3 115.9,-59.4 229.4,-31.6"
         style="fill:#233862;fill-opacity:1;fill-rule:nonzero;stroke:none"
         id="path150" /><path
         d="m 15875.8,10740 -207.2,-557.4 -270.5,-727.9 c 0,0 -73.4,-7.1 -143.6,13.2 -64.8,18.7 -139,67.6 -139,67.6 0,0 75.1,781.5 215.2,1230.1 35.9,115.2 76.1,208.3 120.5,260.8 217.2,256.6 424.6,-286.4 424.6,-286.4"
         style="fill:#707fe5;fill-opacity:1;fill-rule:nonzero;stroke:none"
         id="path152" /><path
         d="m 15665.1,11625.3 c -117.9,38.1 -425.6,0.6 -759.3,-59.8 -92.2,-16.7 -185.2,25.4 -233.7,105.6 l -839.9,65.6 c 0,0 -277.2,-614.6 -125.4,-1006.3 22.3,-57.5 71.2,-93.5 146.7,-94.7 0,0 507.6,-0.7 669.9,-0.7 417.7,0 884,287.2 944.3,299.2 98.7,19.8 138.2,-177.7 236.9,-385 98.8,-207.4 928.1,-918.2 928.1,-918.2 0,0 127.4,-1.3 180.1,18.5 56.6,21.2 77.4,48.8 77.4,48.8 0,0 -919,1828.3 -1225.1,1927"
         style="fill:#8c9df4;fill-opacity:1;fill-rule:nonzero;stroke:none"
         id="path154" /><path
         d="m 14582.8,14137.4 c -62.3,37.1 -123.1,42.8 -160.4,41.7 -25.9,-0.7 -51.8,1 -77.5,4.7 -320.5,47 -513.5,-418.6 -524.9,-559.2 -20.7,-258.3 -157.3,-297.7 -349.7,-459.5 -385.6,-324.3 -272.5,-701.2 -61.7,-841.3 126.6,-84 349.6,0.1 349.6,0.1 3.1,-2.2 609.9,339.1 908.9,503.8 448.4,63.7 95.9,1202.5 -84.3,1309.7"
         style="fill:#152949;fill-opacity:1;fill-rule:nonzero;stroke:none"
         id="path156" /><path
         d="m 14416.5,12967.9 c 1.3,-0.9 -147.2,-51.6 -246.5,-7.6 -93.4,41.3 -164.1,194.9 -162.7,195 42.5,2 89.1,39.1 125,282.8 l 18.1,-6.4 304.2,-109.5 c 0,0 -22.1,-97.6 -36.3,-190.5 -12,-78 -18.5,-152.8 -1.8,-163.8"
         style="fill:#ffb27d;fill-opacity:1;fill-rule:nonzero;stroke:none"
         id="path158" /><path
         d="m 14454.6,13322.2 c 0,0 -12.1,-52.7 -29.9,-151 -174.7,31.4 -249.7,166 -274.3,260.5 l 304.2,-109.5"
         style="fill:#ed975d;fill-opacity:1;fill-rule:nonzero;stroke:none"
         id="path160" /><path
         d="m 14499.9,13225.3 c 0,0 -416.2,55.9 -377.4,314.5 38.8,258.7 11.2,440.1 278.5,415.3 267.4,-24.7 304.1,-131.1 312.1,-220.6 8.1,-89.5 -104,-517 -213.2,-509.2"
         style="fill:#ffb27d;fill-opacity:1;fill-rule:nonzero;stroke:none"
         id="path162" /><path
         d="m 14698,13876.3 c 0,0 -266.4,-229.6 -447.7,-248.1 -181.2,-18.5 -249.8,39.7 -249.8,39.7 0,0 106.8,88.6 171.1,231.7 19,42.2 59,71.2 105.1,75.2 129.4,11.1 374.7,16.2 421.3,-98.5"
         style="fill:#152949;fill-opacity:1;fill-rule:nonzero;stroke:none"
         id="path164" /><path
         d="m 14531.4,13896.8 c 0,0 89.2,-86.1 117.2,-150 27.1,-61.7 35.2,-209.2 13.7,-267.8 0,0 138.8,270 60.2,401.2 -83.3,139.1 -191.1,16.6 -191.1,16.6"
         style="fill:#233862;fill-opacity:1;fill-rule:nonzero;stroke:none"
         id="path166" /><path
         d="m 14766.9,12354.8 c -12.6,-842.4 -3.5,-666.4 -95.6,-746.3 -22.2,-19.3 -84.6,-30.7 -166.8,-36.2 -258.3,-17.1 -712.4,25.4 -729.7,73.2 -59.6,165.2 -17.5,216.5 -67.2,469.4 -5.2,26.9 -11.6,56 -19.1,87.7 -41.5,173.7 -81.8,232.8 65.2,511.8 133.4,252.8 271.9,457.9 284.4,450.5 351.8,-208.8 380.2,-33.3 380.2,-33.3 0,0 354.8,-365.9 348.6,-776.8"
         style="fill:#2b478b;fill-opacity:1;fill-rule:nonzero;stroke:none"
         id="path168" /><path
         d="m 15668.6,10182.6 -270.5,-727.9 c 0,0 -73.4,-7.1 -143.6,13.2 -64.8,18.7 -139,67.6 -139,67.6 0,0 75.1,781.5 215.2,1230.1 l 337.9,-583"
         style="fill:#8c9df4;fill-opacity:1;fill-rule:nonzero;stroke:none"
         id="path170" /><path
         d="m 14418.3,13131.7 c 0,0 362,-61.4 404.5,-217.3 42.5,-155.8 182.5,-1101.9 182.5,-1101.9 0,0 -102.1,-99.7 -187.1,-14.7 -85.1,85 -267.6,885.2 -267.6,885.2 l -132.3,448.7"
         style="fill:#2b478b;fill-opacity:1;fill-rule:nonzero;stroke:none"
         id="path172" /><path
         d="m 14504.5,11572.3 c -258.3,-17.1 -712.4,25.4 -729.7,73.2 -59.6,165.2 -17.5,216.5 -67.2,469.4 l 124.6,350.8 c 0,0 -20.6,-390.7 94.6,-493.4 115.1,-102.8 471.7,-198.4 527.7,-284.2 27.1,-41.2 44.8,-82.6 50,-115.8"
         style="fill:#162c4f;fill-opacity:1;fill-rule:nonzero;stroke:none"
         id="path174" /><path
         d="m 14208.5,11736.7 c 0,0 254.9,56.7 296,34.1 41.1,-22.6 141.6,-105 154.2,-133.7 12.6,-28.6 -91.5,21.8 -125.4,30.9 -21.9,5.9 -79.7,-14.2 -108.3,-23.7 -120.2,-40.1 -193.9,-19.5 -193.9,-19.5 l -22.6,111.9"
         style="fill:#ffb27d;fill-opacity:1;fill-rule:nonzero;stroke:none"
         id="path176" /><path
         d="m 14037.9,13165.1 c 0,0 -342.2,-21.1 -460.7,-186.3 -166.7,-232.5 -497.5,-1223.7 -308,-1355.9 213.5,-148.9 971.7,-39 971.7,-39 0,0 25.3,118 -9.8,175 -35.2,57 -605.6,149.2 -631.9,175.5 -26.4,26.4 329.1,513.4 329.1,592.4 0,79 109.6,638.3 109.6,638.3"
         style="fill:#2b478b;fill-opacity:1;fill-rule:nonzero;stroke:none"
         id="path178" /><path
         d="m 14516.8,11699.9 c 0,0 53.4,-68.9 70.9,-77.1 17.5,-8.3 28.9,-6.2 28.9,-6.2 l -36,64.7 -63.8,18.6"
         style="fill:#ffb27d;fill-opacity:1;fill-rule:nonzero;stroke:none"
         id="path180" /><path
         d="m 14504.5,11770.8 155.3,-75.4 c 0,0 -6.6,-10.8 -25.8,-10 -19.1,0.9 -67.3,18.6 -67.3,18.6 l -62.2,66.8"
         style="fill:#ffb27d;fill-opacity:1;fill-rule:nonzero;stroke:none"
         id="path182" /><path
         d="m 15830.2,11593.6 h -1621.7 v -35.8 h 1607.3 l 14.4,35.8"
         style="fill:#f99746;fill-opacity:1;fill-rule:nonzero;stroke:none"
         id="path184" /><path
         d="m 14587.7,11557.8 h 1228.1 l 369.5,918.6 h -1226.2 l -371.4,-918.6"
         style="fill:#f99746;fill-opacity:1;fill-rule:nonzero;stroke:none"
         id="path186" /><path
         d="m 15505.8,12017.1 c 9.3,32.3 -9.4,58.5 -41.7,58.5 -32.3,0 -66,-26.2 -75.2,-58.5 -9.3,-32.3 9.4,-58.5 41.7,-58.5 32.3,0 66,26.2 75.2,58.5"
         style="fill:#ffffff;fill-opacity:1;fill-rule:nonzero;stroke:none"
         id="path188" /><path
         d="m 24170.3,8848.8 c -36,-96.8 -98.3,-209.1 -163.8,-237 -74.2,-31.7 -105.2,-76.4 -105.2,-76.4 l -59.9,34.8 -71.6,41.6 c 0,0 1.7,7.9 5.2,20.9 3.4,12.9 8.8,30.8 16.1,50.7 0,0 21.9,28.2 8.5,63.7 -13.5,35.4 -10.8,90.2 12.2,123.6 22.9,33.3 45.1,115.5 58.9,113.1 33.5,-5.8 -16.4,-118.8 -2.1,-139.7 12.9,-19 29.2,-12.5 32.2,-11 l 0.5,0.3 c 93.9,41.3 207.8,263.9 258.2,233.8 18.9,-11.2 26.1,-177.2 10.8,-218.4"
         style="fill:#ffb27d;fill-opacity:1;fill-rule:nonzero;stroke:none"
         id="path190" /><path
         d="m 23845.4,8714 117.7,-82.7 c 8.3,-5.8 19.9,-3.8 25.7,4.5 l 301.4,428.8 c 5.8,8.3 3.8,19.9 -4.5,25.8 L 24168,9173 c -8.3,5.9 -19.9,3.8 -25.7,-4.5 L 23841,8739.7 c -5.9,-8.3 -3.9,-19.8 4.4,-25.7"
         style="fill:#2b478b;fill-opacity:1;fill-rule:nonzero;stroke:none"
         id="path192" /><path
         d="m 23953.1,8638.3 69,-48.4 c 6.3,-4.5 15.1,-2.9 19.6,3.4 l 306.4,436 c 4.4,6.3 2.9,15.1 -3.4,19.6 l -69,48.4 c -6.3,4.5 -15.1,2.9 -19.6,-3.4 l -306.4,-436 c -4.4,-6.3 -2.9,-15.1 3.4,-19.6"
         style="fill:#233862;fill-opacity:1;fill-rule:nonzero;stroke:none"
         id="path194" /><path
         d="m 22157.9,9329.3 c 0,0 598.5,-1044 815.7,-1236.1 l 796.2,593.6 c 0,0 115.6,-35.4 166.2,-151.4 0,0 -483.5,-985.1 -959.6,-1026.9 -476.1,-41.7 -1144.3,1180.8 -1144.3,1180.8 l 325.8,640"
         style="fill:#707fe5;fill-opacity:1;fill-rule:nonzero;stroke:none"
         id="path196" /><path
         d="m 20803.3,2228.4 h -345.8 c -43.6,23.7 -82.4,77.8 -94.6,158.5 -16.9,111.4 -141.8,172.1 -168.8,263.3 -27,91.1 111.4,219.4 111.4,219.4 l 23.1,29.8 24.1,31 229.6,-54.1 c 0,0 5.7,-54.7 9.1,-124.3 2.5,-50.3 3.8,-108.3 1,-159.2 -6.8,-121.5 34,-252.4 142,-276.1 79.8,-17.4 76.2,-64.8 68.9,-88.3"
         style="fill:#162c4f;fill-opacity:1;fill-rule:nonzero;stroke:none"
         id="path198" /><path
         d="m 22810.5,2228.4 h -791 c -38,46.4 -24,217.7 -18.2,273.7 1.2,11.2 2,17.8 2,17.8 0,0 270.1,216 307.2,50.6 1.1,-5.2 2.5,-10.3 4,-15.3 46.7,-154.7 256.3,-225 377.4,-244.6 78.7,-12.8 107.8,-53.7 118.6,-82.2"
         style="fill:#162c4f;fill-opacity:1;fill-rule:nonzero;stroke:none"
         id="path200" /><path
         d="m 22659.8,6643.3 c 0,0 -41,-511.7 -89.3,-1126.8 -65.5,-835.5 -144.2,-1861.8 -152,-2056.2 -13.5,-337.6 -67.6,-877.6 -67.6,-877.6 0,0 -128.2,-128.3 -384.8,-74.3 0,0 -228.6,771 -293.9,1586.6 -1.1,13.4 -2.1,26.9 -3.1,40.3 -60.7,830.4 -155.2,2578.9 -155.2,2578.9 l 1145.9,-70.9"
         style="fill:#f99746;fill-opacity:1;fill-rule:nonzero;stroke:none"
         id="path202" /><path
         d="m 22659.8,6643.3 c 0,0 -41,-511.7 -89.3,-1126.8 L 21672.2,4095 c -1.1,13.4 -2.1,26.9 -3.1,40.3 -60.7,830.4 -155.2,2578.9 -155.2,2578.9 l 1145.9,-70.9"
         style="fill:#ed7d2b;fill-opacity:1;fill-rule:nonzero;stroke:none"
         id="path204" /><path
         d="m 22472.5,6582.5 c 0,0 -739.2,-1853.1 -1225.3,-2723.9 -486,-870.9 -637.9,-1113.9 -637.9,-1113.9 0,0 -278.5,111.4 -303.8,187.3 0,0 185.8,1681.2 511.3,2091.1 184,231.5 400,926.5 410.2,1169.5 10.1,243.1 65.8,724.1 65.8,724.1 l 1179.7,-334.2"
         style="fill:#f99746;fill-opacity:1;fill-rule:nonzero;stroke:none"
         id="path206" /><path
         d="m 22288.5,9283.9 c -288.9,-91.1 -765.5,165.9 -765.5,165.9 0,0 243.1,188.9 229.2,604.5 l 223.3,-180 151.7,-122.3 c 0,0 -0.6,-72.1 -17.2,-198.4 -4.4,-33.2 -12.3,-85 12.6,-111.6 96.7,-103.3 165.9,-158.1 165.9,-158.1"
         style="fill:#ffb27d;fill-opacity:1;fill-rule:nonzero;stroke:none"
         id="path208" /><path
         d="m 22127.2,9752 c 0,0 -0.6,-72.1 -17.2,-198.4 -168.1,28.9 -358.8,300.6 -358.8,300.6 85.6,24.7 160.6,29.1 224.3,20.1 l 151.7,-122.3"
         style="fill:#ed975d;fill-opacity:1;fill-rule:nonzero;stroke:none"
         id="path210" /><path
         d="m 22215.6,9758.9 c 0,0 -477.2,-79.3 -521.9,218.6 -44.8,297.9 -136.6,488.3 166.2,551.5 302.7,63.2 379.1,-41.6 418.3,-137.4 39.1,-95.7 60.3,-604.4 -62.6,-632.7"
         style="fill:#ffb27d;fill-opacity:1;fill-rule:nonzero;stroke:none"
         id="path212" /><path
         d="m 22691.6,6600.6 c -8.7,-7.2 -18.8,-11.5 -30.3,-11.5 -108.5,1.4 -424.8,-58.8 -692.5,-31.3 -225.6,21.7 -425.3,88.5 -639.8,184.6 -28.5,12.8 -94,47.8 -92.6,79.6 1,34.9 4.5,85.4 8.8,149.1 15.2,221.4 41.7,602.1 15.9,1041.4 -4.7,81.8 -7.1,162.9 -7.4,242.8 -2.2,595.4 115.8,1119 353,1296.3 20.3,14.5 144.7,-46.3 259,-102.7 105.6,-52.1 188.4,-57.6 288.2,-37.4 l 122.6,-88.5 c 121.5,-112.8 254.6,-266.1 312.4,-499 49.2,-198.2 78.1,-555.5 94,-925.8 7.3,-167.8 13.1,-337.1 14.6,-497.6 v -5.8 c 1.4,-15.9 1.4,-33.3 1.4,-49.2 5.8,-412.2 0,-739.1 -7.3,-745"
         style="fill:#8c9df4;fill-opacity:1;fill-rule:nonzero;stroke:none"
         id="path214" /><path
         d="m 21245.2,6971.1 c 15.2,221.4 41.7,602.1 15.9,1041.4 -4.7,81.8 -7.1,162.9 -7.4,242.8 98.8,239.7 179.6,413.6 179.6,413.6 h 249.1 c 0,0 182.6,-1247.3 -437.2,-1697.8"
         style="fill:#707fe5;fill-opacity:1;fill-rule:nonzero;stroke:none"
         id="path216" /><path
         d="m 19969.3,5557.5 1062.3,-151.4 c 138.3,-19.7 267.5,77.3 287.2,215.6 l 65.6,460.3 c 19.7,138.3 -77.3,267.5 -215.5,287.2 l -1062.3,151.4 c -138.3,19.7 -267.5,-77.3 -287.2,-215.6 l -65.6,-460.3 c -19.7,-138.3 77.3,-267.5 215.5,-287.2"
         style="fill:#233862;fill-opacity:1;fill-rule:nonzero;stroke:none"
         id="path218" /><path
         d="m 20399.1,6581.5 c 2,13.9 12.9,24.4 26.1,26.5 3,0.5 6.2,0.6 9.4,0.1 l 47.2,-6.6 174.8,-25 95.3,-13.6 c 17.1,-2.4 29.1,-18.4 26.6,-35.5 l -14.1,-99.3 -379.5,54.1 z m 829.8,-349.5 v 0 c -29.9,74.7 -94.3,133.7 -176,153.7 h -0.1 l -0.2,0.1 c -8,1.9 -16.1,3.6 -24.5,4.7 l -211.5,30.1 14.1,99.4 c 3.2,22.1 -2.5,44.3 -16,62.3 -13.5,18 -33.2,29.7 -55.4,32.8 l -55.2,7.9 -222.1,31.6 -40,5.7 c -45.9,6.5 -88.6,-25.4 -95.1,-71.4 l -14.1,-99.3 -365.2,52 c -138.7,19.8 -268.4,-77.5 -288.2,-216.3 l -66.4,-465.7 c -19.7,-138.8 77.6,-268.5 216.4,-288.3 l 1060.4,-151.1 c 18.7,-2.7 37.2,-3.2 55.3,-1.8 v 0 h 0.2 c 29,2.2 56.9,9.5 82.7,20.9 78,34.4 137.2,107.1 150.1,197.3 l 66.3,465.7 c 6.5,45.4 0.4,89.7 -15.5,129.7"
         style="fill:#2b478b;fill-opacity:1;fill-rule:nonzero;stroke:none"
         id="path220" /><path
         d="m 20763.9,6945.9 c 0,0 -49.9,-51 -44.8,-121.7 12.9,-175.8 -8,-255.5 -121.1,-273.6 0,0 -134.2,-25.2 -135.9,53.6 0,0 63.1,-0.5 49.9,110 -15.3,127.4 -13.7,128.6 69.9,195.1 l 55.4,91.5 126.6,-54.9"
         style="fill:#ffb27d;fill-opacity:1;fill-rule:nonzero;stroke:none"
         id="path222" /><path
         d="m 20635.3,6871.3 c 89.7,-17.5 186.9,-10.4 186.9,-10.4 0,0 266.3,822.5 300.5,897.7 34.3,75.1 791,964.5 791,964.5 l -315.2,788.9 c 0,0 -818.5,-1367.1 -901.5,-1559.2 -137.4,-317.4 -185,-1029.1 -185,-1029.1 0,0 52.8,-38.7 123.3,-52.4"
         style="fill:#8c9df4;fill-opacity:1;fill-rule:nonzero;stroke:none"
         id="path224" /><path
         d="m 21693.3,10006.2 c 0,0 48.9,8.2 41,75.6 -7.9,67.4 -7.8,155.6 47.1,139.1 54.8,-16.4 57.5,-60.3 80.1,-34.6 22.5,25.6 22.9,133.6 186,141.1 163.2,7.5 229.5,-49.2 305.4,-15.9 75.8,33.4 79.8,148.2 79.8,148.2 0,0 -21.5,-41 -54.1,-54 0,0 126.6,173.1 -20,291.8 -146.5,118.7 -296,41 -380.8,35.9 -186.8,-11.3 -307.5,-22.6 -368.6,-145.3 -61,-122.8 -35.8,-463.7 84.1,-581.9"
         style="fill:#2b478b;fill-opacity:1;fill-rule:nonzero;stroke:none"
         id="path226" /><path
         d="m 20689.1,6839.7 c 0,0 53.8,-56 57.2,-79.3 10.8,-74.8 35.8,-107.1 23.3,-115.2 -26,-16.9 -60.5,38.5 -76.9,88.1 -16.5,49.7 -3.6,106.4 -3.6,106.4"
         style="fill:#ffb27d;fill-opacity:1;fill-rule:nonzero;stroke:none"
         id="path228" /><path
         d="m 24522.6,2228.2 h -712.1 c -38.1,32.4 26.5,105.9 93.9,110.9 29.3,2.2 66.4,-4 108.7,-12.9 9.8,130.1 65.8,715.2 276.7,691.7 237.1,-26.3 0,-257.6 -67.1,-394.6 -49.6,-101.4 -102,-246.9 -126,-315.6 19.3,-4.2 39.2,-8.2 59.6,-12 31.4,96.5 148.4,421.1 297.1,402.2 174.6,-22.1 104.4,-152.3 -19.4,-229.5 -90.8,-56.9 -202.3,-137.6 -255.2,-176.6 44.9,-7.3 91.7,-12.3 139.2,-11.2 122,2.9 181.5,-33 204.6,-52.4"
         style="fill:#a8d29f;fill-opacity:1;fill-rule:nonzero;stroke:none"
         id="path230" /><path
         d="M 27420.4,2156.1 H 2401.72 c -16.29,0 -29.62,13.4 -29.62,29.6 v 13.1 c 0,16.3 13.33,29.6 29.62,29.6 H 27420.4 c 16.3,0 29.6,-13.3 29.6,-29.6 v -13.1 c 0,-16.2 -13.3,-29.6 -29.6,-29.6"
         style="fill:#233862;fill-opacity:1;fill-rule:nonzero;stroke:none"
         id="path232" /><path
         d="m 23033.5,12437.5 c -52,851.4 -649.2,993.3 -1198,993.2 -548.7,-0.2 -1085.3,-284.9 -1059.2,-925.2 11.2,-276.3 88.4,-516.2 271.4,-686.3 l -206.3,-516.3 420.1,373.6 c 168.9,-79.7 389.3,-124.3 672.8,-124.2 840.8,0.3 1132.7,337.4 1099.2,885.2"
         style="fill:#abb9ff;fill-opacity:1;fill-rule:nonzero;stroke:none"
         id="path234" /><path
         d="m 22004.3,12366.8 44.1,255.9 h -241.2 l -44.1,-255.9 z m -423.5,-152.9 h -132.4 v 152.9 h 158.8 l 42.7,255.9 h -147.1 v 152.9 h 173.5 l 39.7,230.9 h 157.4 l -39.7,-230.9 h 241.1 l 38.3,230.9 h 157.3 l -39.7,-230.9 h 130.9 v -152.9 h -157.4 l -42.6,-255.9 h 147 v -152.9 h -173.5 l -41.1,-236.8 h -157.4 l 41.2,236.8 h -241.2 l -39.7,-236.8 h -157.3 l 41.2,236.8"
         style="fill:#ebf3fa;fill-opacity:1;fill-rule:nonzero;stroke:none"
         id="path236" /><g
         id="g238"><g
           id="g240"
           clip-path="url(#clipPath244)"><path
             d="m 6505.46,9175.7 h 1571.33 v 1443.09 H 6505.46 Z"
             style="fill:#d9e5fc;fill-opacity:1;fill-rule:nonzero;stroke:none"
             id="path246" /></g></g><path
         d="m 12411.9,2312.9 -17.2,2.7 c -67.7,876.6 -335.4,1505.6 -339.1,1514.2 l 15.6,6.8 c 3.8,-8.7 273.4,-641.9 340.7,-1523.7"
         style="fill:#a8d29f;fill-opacity:1;fill-rule:nonzero;stroke:none"
         id="path248" /><path
         d="m 11873.9,3918 c 33.1,-37.4 187.6,-97.5 198.3,-88.1 10.7,9.4 -29.8,170.2 -62.8,207.6 -33,37.4 -90.1,41 -127.5,8 -37.4,-33 -41,-90.1 -8,-127.5"
         style="fill:#ffffff;fill-opacity:1;fill-rule:nonzero;stroke:none"
         id="path250" /><path
         d="m 12110.8,4048.4 c -29.8,-40 -56.9,-203.7 -45.4,-212.2 11.4,-8.5 160.5,64.2 190.3,104.2 29.8,40 21.5,96.6 -18.5,126.4 -40,29.8 -96.6,21.6 -126.4,-18.4"
         style="fill:#ffffff;fill-opacity:1;fill-rule:nonzero;stroke:none"
         id="path252" /><path
         d="m 12288.6,3874.4 c -48.1,13.1 -210.3,-21.5 -214,-35.3 -3.8,-13.7 118.4,-125.9 166.5,-139 48.2,-13.1 97.8,15.3 110.9,63.4 13.1,48.1 -15.2,97.8 -63.4,110.9"
         style="fill:#ffffff;fill-opacity:1;fill-rule:nonzero;stroke:none"
         id="path254" /><path
         d="m 12179,3657.4 c -4.8,49.7 -94.7,189.1 -108.8,187.7 -14.2,-1.4 -75.7,-155.4 -71,-205 4.8,-49.7 49,-86.1 98.6,-81.3 49.7,4.9 86,49 81.2,98.6"
         style="fill:#ffffff;fill-opacity:1;fill-rule:nonzero;stroke:none"
         id="path256" /><path
         d="m 11933,3668.1 c 44.2,23.2 139.3,159.1 132.7,171.7 -6.6,12.6 -172.5,11.4 -216.7,-11.8 -44.1,-23.1 -61.1,-77.7 -37.9,-121.9 23.1,-44.2 77.7,-61.2 121.9,-38"
         style="fill:#ffffff;fill-opacity:1;fill-rule:nonzero;stroke:none"
         id="path258" /><path
         d="m 12036.3,3844.5 c 2.6,16.2 17.8,27.2 34.1,24.7 16.2,-2.6 27.2,-17.9 24.7,-34.1 -2.6,-16.2 -17.9,-27.3 -34.1,-24.7 -16.2,2.6 -27.3,17.8 -24.7,34.1"
         style="fill:#f78248;fill-opacity:1;fill-rule:nonzero;stroke:none"
         id="path260" /><path
         d="m 12330.9,3586.7 c -49,-60.4 -102,-313.6 -84.8,-327.6 17.2,-14 254.3,89.5 303.4,149.8 49.1,60.4 40,149.1 -20.4,198.2 -60.4,49.1 -149.1,39.9 -198.2,-20.4"
         style="fill:#a8d29f;fill-opacity:1;fill-rule:nonzero;stroke:none"
         id="path262" /><path
         d="m 12210.2,2859.5 c 51,-24.9 163.7,-176.1 156.6,-190.6 -7.1,-14.5 -195.6,-18.9 -246.5,6 -51,24.8 -72.2,86.3 -47.3,137.3 24.8,50.9 86.3,72.1 137.2,47.3"
         style="fill:#a8d29f;fill-opacity:1;fill-rule:nonzero;stroke:none"
         id="path264" /><path
         d="m 12903.2,2312.9 19.7,3.1 c 77.8,1006.4 385.1,1728.7 389.4,1738.5 l -18,7.7 c -4.2,-9.9 -313.8,-736.9 -391.1,-1749.3"
         style="fill:#a8d29f;fill-opacity:1;fill-rule:nonzero;stroke:none"
         id="path266" /><path
         d="m 13520.8,4155.8 c -37.9,-43 -215.3,-112 -227.6,-101.2 -12.2,10.8 34.3,195.5 72.2,238.4 37.9,42.9 103.4,47 146.3,9.1 43,-37.9 47,-103.4 9.1,-146.3"
         style="fill:#ffffff;fill-opacity:1;fill-rule:nonzero;stroke:none"
         id="path268" /><path
         d="m 13248.9,4305.4 c 34.2,-45.9 65.3,-233.8 52.2,-243.5 -13.1,-9.8 -184.3,73.7 -218.5,119.6 -34.2,45.9 -24.8,110.9 21.2,145.1 45.9,34.2 110.8,24.8 145.1,-21.2"
         style="fill:#ffffff;fill-opacity:1;fill-rule:nonzero;stroke:none"
         id="path270" /><path
         d="m 13044.7,4105.7 c 55.3,15 241.5,-24.7 245.8,-40.5 4.3,-15.8 -136,-144.6 -191.2,-159.6 -55.3,-15.1 -112.3,17.5 -127.4,72.8 -15,55.2 17.6,112.2 72.8,127.3"
         style="fill:#ffffff;fill-opacity:1;fill-rule:nonzero;stroke:none"
         id="path272" /><path
         d="m 13170.6,3856.6 c 5.5,57 108.7,217 125,215.5 16.2,-1.6 86.9,-178.5 81.4,-235.5 -5.5,-57 -56.2,-98.7 -113.2,-93.2 -57,5.5 -98.8,56.2 -93.2,113.2"
         style="fill:#ffffff;fill-opacity:1;fill-rule:nonzero;stroke:none"
         id="path274" /><path
         d="m 13453,3868.8 c -50.7,26.7 -159.9,182.7 -152.3,197.1 7.6,14.5 198,13.2 248.7,-13.4 50.8,-26.7 70.3,-89.3 43.7,-140 -26.7,-50.7 -89.4,-70.3 -140.1,-43.7"
         style="fill:#ffffff;fill-opacity:1;fill-rule:nonzero;stroke:none"
         id="path276" /><path
         d="m 13334.4,4071.3 c -2.9,18.6 -20.4,31.3 -39.1,28.4 -18.6,-3 -31.3,-20.5 -28.3,-39.1 3,-18.6 20.5,-31.3 39.1,-28.4 18.6,3 31.3,20.5 28.3,39.1"
         style="fill:#f78248;fill-opacity:1;fill-rule:nonzero;stroke:none"
         id="path278" /><path
         d="m 12931.9,3246.4 c 39.9,-49 83,-254.9 68.9,-266.3 -14,-11.4 -206.7,72.7 -246.6,121.8 -40,49.1 -32.5,121.2 16.6,161.1 49,39.9 121.2,32.5 161.1,-16.6"
         style="fill:#a8d29f;fill-opacity:1;fill-rule:nonzero;stroke:none"
         id="path280" /><path
         d="m 13134.7,2940.4 c -58.5,-28.5 -187.9,-202.1 -179.7,-218.8 8.1,-16.7 224.5,-21.6 283,6.9 58.6,28.6 82.9,99.1 54.3,157.6 -28.5,58.5 -99.1,82.9 -157.6,54.3"
         style="fill:#a8d29f;fill-opacity:1;fill-rule:nonzero;stroke:none"
         id="path282" /><path
         d="m 11972.4,2228.4 c 0,0 166.4,181.3 524.5,115.7 358,-65.6 554.7,126.7 620.3,-115.7 h -1144.8"
         style="fill:#a8d29f;fill-opacity:1;fill-rule:nonzero;stroke:none"
         id="path284" /></g></g></svg>
